<svg width="24" height="24" viewBox="0 0 24 24" fill="none" xmlns="http://www.w3.org/2000/svg">
    <rect x="4.18506" y="4.12793" width="15.7265" height="14.0347" rx="0.5" fill="url(#paint0_linear_59970_6335)" stroke="url(#paint1_linear_59970_6335)"/>
    <path d="M3.64757 19.1769L8.70093 11.6877C9.14476 11.0299 10.3132 11.0299 10.757 11.6877L14.4674 17.1867L15.7382 15.3889C16.1878 14.7529 17.322 14.7529 17.7716 15.3889L20.4378 19.1606C20.8838 19.7917 20.3201 20.5769 19.421 20.5769H4.67557C3.78672 20.5769 3.22194 19.8077 3.64757 19.1769Z" fill="white"/>
    <path d="M5.62887 20.4229H18.1836C19.4111 20.4229 20.4063 19.4277 20.4063 18.2002V11.9229V5.64547C20.4063 4.41795 19.4112 3.42285 18.1836 3.42285H5.62887C4.40135 3.42285 3.40625 4.41795 3.40625 5.64547V18.2002C3.40625 19.4277 4.40135 20.4229 5.62887 20.4229Z" stroke="url(#paint2_linear_59970_6335)" stroke-width="1.5" stroke-linecap="round"/>
    <path d="M17.1313 4.66702C17.1313 4.66702 17.4546 5.93941 18.0456 6.53043C18.6366 7.12145 19.8813 7.41702 19.8813 7.41702C19.8813 7.41702 18.6324 7.77057 18.0413 8.36158C17.4503 8.9526 17.1313 10.167 17.1313 10.167C17.1313 10.167 16.813 8.9526 16.222 8.36158C15.631 7.77057 14.3813 7.41702 14.3813 7.41702C14.3813 7.41702 15.61 7.11036 16.201 6.51934C16.792 5.92832 17.1313 4.66702 17.1313 4.66702Z" fill="white"/>
    <defs>
        <linearGradient id="paint0_linear_59970_6335" x1="3.68506" y1="11.1453" x2="20.4115" y2="11.1453" gradientUnits="userSpaceOnUse">
            <stop stop-color="#1D1EF3"/>
            <stop offset="1" stop-color="#804DF5"/>
        </linearGradient>
        <linearGradient id="paint1_linear_59970_6335" x1="3.68506" y1="11.1453" x2="20.4115" y2="11.1453" gradientUnits="userSpaceOnUse">
            <stop stop-color="#1D1EF3"/>
            <stop offset="1" stop-color="#804DF5"/>
        </linearGradient>
        <linearGradient id="paint2_linear_59970_6335" x1="3.40625" y1="11.9229" x2="20.4063" y2="11.9229" gradientUnits="userSpaceOnUse">
            <stop stop-color="#1D1EF3"/>
            <stop offset="1" stop-color="#804DF5"/>
        </linearGradient>
    </defs>
</svg>
