<svg width="24" height="24" viewBox="0 0 24 24" fill="none" xmlns="http://www.w3.org/2000/svg">
    <g clip-path="url(#clip0_59970_5890)">
        <path d="M22.478 12.0218C22.478 17.8086 17.7868 22.4998 12 22.4998C6.21313 22.4998 1.52197 17.8086 1.52197 12.0218C1.52197 6.23506 6.21313 1.54395 12 1.54395C17.7868 1.54395 22.478 6.23506 22.478 12.0218Z" fill="url(#paint0_linear_59970_5890)"/>
        <path d="M18.4228 0.450096C18.4947 0.275975 18.7597 0.275975 18.8316 0.450096C19.1403 1.19848 19.7702 2.56556 20.5234 3.31883C21.2767 4.07209 22.6438 4.70198 23.3922 5.01068C23.5663 5.08251 23.5663 5.34758 23.3922 5.4194C22.6438 5.72811 21.2767 6.358 20.5234 7.11126C19.7702 7.86452 19.1403 9.23161 18.8316 9.97999C18.7597 10.1541 18.4947 10.1541 18.4228 9.97999C18.1141 9.23161 17.4842 7.86452 16.731 7.11126C15.9777 6.358 14.6106 5.72811 13.8622 5.4194C13.6881 5.34758 13.6881 5.08251 13.8622 5.01068C14.6106 4.70198 15.9777 4.07209 16.731 3.31883C17.4842 2.56556 18.1141 1.19848 18.4228 0.450096Z" fill="#F4F2FF"/>
        <path d="M11.9998 5.59277C11.9998 5.59277 12.9999 8.41208 14.3044 9.71661C15.609 11.0211 18.4283 12.0212 18.4283 12.0212C18.4283 12.0212 15.609 13.0213 14.3044 14.3259C12.9999 15.6304 11.9998 18.4497 11.9998 18.4497C11.9998 18.4497 10.9997 15.6304 9.69516 14.3259C8.39062 13.0213 5.57129 12.0212 5.57129 12.0212C5.57129 12.0212 8.39062 11.0211 9.69516 9.71661C10.9997 8.41208 11.9998 5.59277 11.9998 5.59277Z" fill="white"/>
        <path d="M18.6271 1.5C18.6271 1.5 19.2051 3.12948 19.9591 3.88346C20.7131 4.63744 22.3426 5.21546 22.3426 5.21546C22.3426 5.21546 20.7131 5.79348 19.9591 6.54746C19.2051 7.30144 18.6271 8.93092 18.6271 8.93092C18.6271 8.93092 18.0491 7.30144 17.2951 6.54746C16.5411 5.79348 14.9116 5.21546 14.9116 5.21546C14.9116 5.21546 16.5411 4.63744 17.2951 3.88346C18.0491 3.12948 18.6271 1.5 18.6271 1.5Z" fill="white"/>
        <path d="M18.6271 1.5C18.6271 1.5 19.2051 3.12948 19.9591 3.88346C20.7131 4.63744 22.3426 5.21546 22.3426 5.21546C22.3426 5.21546 20.7131 5.79348 19.9591 6.54746C19.2051 7.30144 18.6271 8.93092 18.6271 8.93092C18.6271 8.93092 18.0491 7.30144 17.2951 6.54746C16.5411 5.79348 14.9116 5.21546 14.9116 5.21546C14.9116 5.21546 16.5411 4.63744 17.2951 3.88346C18.0491 3.12948 18.6271 1.5 18.6271 1.5Z" fill="url(#paint1_linear_59970_5890)"/>
        <path d="M21.5292 1.54395C21.5292 1.54395 21.6768 1.95998 21.8693 2.15248C22.0618 2.34499 22.4778 2.49257 22.4778 2.49257C22.4778 2.49257 22.0618 2.64015 21.8693 2.83265C21.6768 3.02516 21.5292 3.44119 21.5292 3.44119C21.5292 3.44119 21.3816 3.02516 21.1891 2.83265C20.9966 2.64015 20.5806 2.49257 20.5806 2.49257C20.5806 2.49257 20.9966 2.34499 21.1891 2.15248C21.3816 1.95998 21.5292 1.54395 21.5292 1.54395Z" fill="url(#paint2_linear_59970_5890)"/>
    </g>
    <defs>
        <linearGradient id="paint0_linear_59970_5890" x1="1.52197" y1="12.0218" x2="22.478" y2="12.0218" gradientUnits="userSpaceOnUse">
            <stop stop-color="#1D1EF3"/>
            <stop offset="1" stop-color="#804DF5"/>
        </linearGradient>
        <linearGradient id="paint1_linear_59970_5890" x1="14.9116" y1="5.21546" x2="22.3426" y2="5.21546" gradientUnits="userSpaceOnUse">
            <stop stop-color="#1D1EF3"/>
            <stop offset="1" stop-color="#804DF5"/>
        </linearGradient>
        <linearGradient id="paint2_linear_59970_5890" x1="20.5806" y1="2.49257" x2="22.4778" y2="2.49257" gradientUnits="userSpaceOnUse">
            <stop stop-color="#1D1EF3"/>
            <stop offset="1" stop-color="#804DF5"/>
        </linearGradient>
        <clipPath id="clip0_59970_5890">
            <rect width="24" height="24" fill="white"/>
        </clipPath>
    </defs>
</svg>
