<svg width="24" height="24" viewBox="0 0 24 24" fill="none" xmlns="http://www.w3.org/2000/svg">
    <path d="M11.999 7.5166C12.4177 8.39237 13.034 9.50669 13.7744 10.2471C14.5145 10.9871 15.6284 11.6019 16.5039 12.0205C15.6282 12.4391 14.5147 13.0557 13.7744 13.7959C13.0342 14.5362 12.4177 15.6497 11.999 16.5254C11.5804 15.6499 10.9656 14.536 10.2256 13.7959C9.4852 13.0555 8.37089 12.4391 7.49512 12.0205C8.3708 11.6019 9.48536 10.9873 10.2256 10.2471C10.9658 9.50686 11.5804 8.39228 11.999 7.5166Z" stroke="#796AF7" stroke-width="1.5"/>
    <path d="M11.9995 1.54395C13.6755 1.54395 15.2587 1.93907 16.6636 2.63867C16.5686 2.75345 16.4734 2.86298 16.3745 2.96191C16.107 3.22947 15.7724 3.48173 15.4136 3.7168C14.361 3.28366 13.2083 3.04395 11.9995 3.04395C7.04142 3.04419 3.02217 7.06346 3.02197 12.0215C3.02197 16.9797 7.0413 20.9998 11.9995 21C16.9579 21 20.978 16.9798 20.978 12.0215C20.978 10.7064 20.6923 9.45855 20.1841 8.33301C20.4017 8.00991 20.6352 7.71103 20.8794 7.4668C20.9959 7.3503 21.1262 7.23796 21.2642 7.12695C22.0378 8.58807 22.478 10.2531 22.478 12.0215L22.4644 12.5615C22.1835 18.0975 17.6053 22.5 11.9995 22.5L11.4604 22.4863C5.92434 22.2055 1.52197 17.6273 1.52197 12.0215C1.52217 6.23502 6.21301 1.54419 11.9995 1.54395Z" fill="#3C3C43" fill-opacity="0.4"/>
    <path d="M18.6271 1.5C18.6271 1.5 19.2051 3.12948 19.9591 3.88346C20.7131 4.63744 22.3426 5.21546 22.3426 5.21546C22.3426 5.21546 20.7131 5.79348 19.9591 6.54746C19.2051 7.30144 18.6271 8.93092 18.6271 8.93092C18.6271 8.93092 18.0491 7.30144 17.2951 6.54746C16.5411 5.79348 14.9116 5.21546 14.9116 5.21546C14.9116 5.21546 16.5411 4.63744 17.2951 3.88346C18.0491 3.12948 18.6271 1.5 18.6271 1.5Z" fill="#796AF7"/>
    <path d="M21.5292 1.54395C21.5292 1.54395 21.6768 1.95998 21.8693 2.15248C22.0618 2.34499 22.4778 2.49257 22.4778 2.49257C22.4778 2.49257 22.0618 2.64015 21.8693 2.83265C21.6768 3.02516 21.5292 3.44119 21.5292 3.44119C21.5292 3.44119 21.3816 3.02516 21.1891 2.83265C20.9966 2.64015 20.5806 2.49257 20.5806 2.49257C20.5806 2.49257 20.9966 2.34499 21.1891 2.15248C21.3816 1.95998 21.5292 1.54395 21.5292 1.54395Z" fill="#3C3C43" fill-opacity="0.4"/>
</svg>
