<svg width="16" height="16" viewBox="0 0 16 16" fill="none" xmlns="http://www.w3.org/2000/svg">
    <path d="M15.1795 7.91773C15.1795 8.13972 15.0456 8.33991 14.8395 8.4201L11.6533 9.65043C10.532 10.0836 9.65319 10.9864 9.2409 12.1257L8.02926 15.4857C8.02071 15.5109 8.00164 15.5287 7.98912 15.5513C7.97879 15.5699 7.96885 15.5883 7.95614 15.6053C7.93666 15.6313 7.91719 15.6545 7.89295 15.6753C7.8556 15.7089 7.81467 15.7381 7.76877 15.7585C7.73976 15.7695 7.71095 15.7803 7.68194 15.7839C7.65293 15.7911 7.62412 15.7949 7.59511 15.7949L7.50113 15.7839C7.47212 15.7803 7.44331 15.7693 7.4143 15.7585C7.36661 15.7377 7.32488 15.7077 7.28693 15.6733C7.26369 15.6529 7.24481 15.6303 7.22574 15.6053C7.21481 15.5907 7.20606 15.5753 7.19692 15.5595C7.18182 15.5343 7.16076 15.5137 7.15023 15.4855L5.93859 12.1255C5.52987 10.9862 4.65105 10.0834 3.52981 9.65023L0.343543 8.41991C0.137497 8.33991 0 8.13952 0 7.91753C0 7.68455 0.152002 7.47696 0.372553 7.40796L3.2876 6.48342C4.54991 6.08304 5.54438 5.1001 5.97118 3.84057L7.15738 0.313181C7.17189 0.273184 7.18997 0.236786 7.21163 0.203988C7.22613 0.182189 7.24064 0.16039 7.26229 0.141991C7.30561 0.0947942 7.35985 0.0581961 7.42503 0.0327976C7.44311 0.025598 7.46476 0.0181985 7.48642 0.0145988C7.51901 0.0035994 7.55517 0 7.59133 0C7.6275 0 7.66366 0.0035994 7.69624 0.0145988C7.7179 0.0181985 7.73956 0.025598 7.75764 0.0327976C7.81546 0.0545963 7.86613 0.0909943 7.90964 0.131192C7.92772 0.149391 7.94223 0.16759 7.95673 0.185789C7.98574 0.225787 8.01098 0.265784 8.02548 0.313181L9.21169 3.84057C9.63491 5.1001 10.633 6.08304 11.8917 6.48342L14.8067 7.40796C15.0313 7.47716 15.1795 7.68475 15.1795 7.91773Z" fill="url(#paint0_linear_59242_287)"/>
    <defs>
        <linearGradient id="paint0_linear_59242_287" x1="-0.0627798" y1="7.89744" x2="15.2439" y2="7.89744" gradientUnits="userSpaceOnUse">
            <stop stop-color="#F996FE"/>
            <stop offset="0.515158" stop-color="#EFECFE"/>
            <stop offset="1" stop-color="#A8F5FC"/>
        </linearGradient>
    </defs>
</svg>
