<svg width="8" height="8" viewBox="0 0 8 8" fill="none" xmlns="http://www.w3.org/2000/svg">
    <path fill-rule="evenodd" clip-rule="evenodd" d="M0.146729 6.43991C-0.0485214 6.63521 -0.0484913 6.95177 0.146789 7.14702C0.342069 7.34227 0.658649 7.34226 0.853894 7.14696L3.64651 4.35386L6.43936 7.14671C6.63461 7.34196 6.95121 7.34196 7.14646 7.14671C7.34171 6.95146 7.34171 6.63486 7.14646 6.43961L4.35356 3.64671L7.14626 0.853524C7.34146 0.658244 7.34146 0.341664 7.14616 0.146419C6.95091 -0.0488312 6.63431 -0.0488013 6.43906 0.146479L3.64641 2.93961L0.853554 0.146719C0.658294 -0.0485412 0.341709 -0.0485412 0.146449 0.146719C-0.0488162 0.341984 -0.0488162 0.658564 0.146449 0.853829L2.93941 3.64676L0.146729 6.43991Z" fill="#A9A9A9"/>
</svg>
