<svg width="20" height="20" viewBox="0 0 20 20" fill="none" xmlns="http://www.w3.org/2000/svg">
    <path d="M18.3332 10.5814C18.332 11.806 18.3227 12.847 18.2531 13.701C18.1723 14.6922 18.0068 15.5204 17.6364 16.2082C17.4731 16.5115 17.2723 16.7833 17.0279 17.0277C16.3342 17.7213 15.4505 18.0355 14.3306 18.1861C13.2363 18.3332 11.834 18.3332 10.0446 18.3332H9.95558C8.16616 18.3332 6.7638 18.3332 5.66962 18.1861C4.54967 18.0355 3.66593 17.7213 2.97228 17.0277C2.35734 16.4127 2.03977 15.6474 1.8709 14.6979C1.70501 13.7652 1.67466 12.6048 1.66835 11.1638C1.66675 10.7973 1.66675 10.4096 1.66675 10.0006V9.95538C1.66674 8.16596 1.66673 6.7636 1.81384 5.66942C1.96441 4.54947 2.27863 3.66573 2.97228 2.97208C3.66593 2.27843 4.54967 1.96422 5.66962 1.81364C6.64267 1.68282 7.89463 1.66834 9.41842 1.66675C9.7395 1.66641 10.0001 1.92685 10.0001 2.24794C10.0001 2.56904 9.73942 2.82922 9.41833 2.82956C7.87299 2.83119 6.72301 2.84527 5.82456 2.96606C4.83355 3.0993 4.23609 3.35271 3.7945 3.7943C3.35291 4.23589 3.0995 4.83335 2.96626 5.82436C2.83077 6.8321 2.82954 8.1563 2.82954 9.99988C2.82954 10.225 2.82954 10.4427 2.82981 10.6535L3.60588 9.97455C4.31229 9.35638 5.37696 9.39188 6.04068 10.0555L9.36608 13.381C9.89883 13.9137 10.7374 13.9863 11.3538 13.5531L11.585 13.3906C12.472 12.7673 13.6721 12.8395 14.4779 13.5648L16.6721 15.5395C16.8929 15.0757 17.0241 14.4663 17.0941 13.6066C17.1601 12.7966 17.1692 11.8128 17.1704 10.5815C17.1708 10.2604 17.4309 9.99988 17.752 9.99988C18.0731 9.99988 18.3336 10.2603 18.3332 10.5814Z" fill="#727885"/>
    <path fill-rule="evenodd" clip-rule="evenodd" d="M14.5833 1.66675C12.8155 1.66675 11.9316 1.66675 11.3824 2.21592C10.8333 2.7651 10.8333 3.64898 10.8333 5.41675C10.8333 7.18451 10.8333 8.0684 11.3824 8.61758C11.9316 9.16675 12.8155 9.16675 14.5833 9.16675C16.351 9.16675 17.2349 9.16675 17.7841 8.61758C18.3333 8.0684 18.3333 7.18451 18.3333 5.41675C18.3333 3.64898 18.3333 2.7651 17.7841 2.21592C17.2349 1.66675 16.351 1.66675 14.5833 1.66675ZM16.2752 6.27536L15.0252 7.52536C14.7811 7.76943 14.3854 7.76943 14.1413 7.52536L12.8913 6.27536C12.6473 6.03128 12.6473 5.63555 12.8913 5.39147C13.1354 5.1474 13.5311 5.1474 13.7752 5.39147L13.9583 5.57453V3.75008C13.9583 3.40491 14.2381 3.12508 14.5833 3.12508C14.9284 3.12508 15.2083 3.40491 15.2083 3.75008V5.57453L15.3913 5.39147C15.6354 5.1474 16.0311 5.1474 16.2752 5.39147C16.5193 5.63555 16.5193 6.03128 16.2752 6.27536Z" fill="#727885"/>
</svg>
