<svg width="12" height="12" viewBox="0 0 12 12" fill="none" xmlns="http://www.w3.org/2000/svg">
    <path d="M10.5 11H1.5C1.295 11 1.125 10.83 1.125 10.625C1.125 10.42 1.295 10.25 1.5 10.25H10.5C10.705 10.25 10.875 10.42 10.875 10.625C10.875 10.83 10.705 11 10.5 11Z" fill="white"/>
    <path d="M9.51004 1.73983C8.54004 0.769834 7.59004 0.744834 6.59504 1.73983L5.99004 2.34483C5.94004 2.39483 5.92004 2.47483 5.94004 2.54483C6.32004 3.86983 7.38004 4.92983 8.70504 5.30983C8.72504 5.31483 8.74504 5.31983 8.76504 5.31983C8.82004 5.31983 8.87004 5.29983 8.91004 5.25983L9.51004 4.65483C10.005 4.16483 10.245 3.68983 10.245 3.20983C10.25 2.71483 10.01 2.23483 9.51004 1.73983Z" fill="white"/>
    <path d="M7.80491 5.7649C7.65991 5.6949 7.51992 5.6249 7.38492 5.5449C7.27492 5.4799 7.16992 5.4099 7.06492 5.3349C6.97992 5.2799 6.87991 5.1999 6.78491 5.1199C6.77491 5.1149 6.73991 5.0849 6.69991 5.0449C6.53491 4.9049 6.34992 4.7249 6.18492 4.5249C6.16992 4.5149 6.14492 4.4799 6.10992 4.4349C6.05992 4.3749 5.97492 4.2749 5.89992 4.1599C5.83992 4.0849 5.76992 3.9749 5.70492 3.8649C5.62492 3.7299 5.55492 3.5949 5.48492 3.4549C5.39314 3.25823 5.13501 3.19981 4.98155 3.35327L2.16992 6.1649C2.10492 6.2299 2.04492 6.3549 2.02992 6.4399L1.75992 8.3549C1.70992 8.6949 1.80492 9.0149 2.01492 9.2299C2.19492 9.4049 2.44492 9.4999 2.71492 9.4999C2.77492 9.4999 2.83492 9.4949 2.89492 9.4849L4.81492 9.2149C4.90492 9.1999 5.02992 9.1399 5.08992 9.0749L7.90618 6.25863C8.05658 6.10824 8.00007 5.84947 7.80491 5.7649Z" fill="white"/>
</svg>
