<svg width="211" height="208" viewBox="0 0 211 208" fill="none" xmlns="http://www.w3.org/2000/svg">
    <path d="M167.64 0C179.163 0 188.505 9.34178 188.505 20.8652V186.347C188.505 197.87 179.163 207.212 167.64 207.212H40.2914C28.7679 207.212 19.4262 197.87 19.4261 186.347V20.8652C19.4261 9.34178 28.7679 0 40.2914 0H167.64ZM41.0111 8.63379C33.8586 8.63379 28.0599 14.4325 28.0599 21.585V128.788C28.0601 135.94 33.8587 141.738 41.0111 141.738H166.92C174.073 141.738 179.871 135.94 179.871 128.788V21.585C179.871 14.4325 174.073 8.63379 166.92 8.63379H41.0111Z" fill="url(#paint0_linear_2007_36424)"/>
    <circle cx="5.39614" cy="56.4796" r="5.39614" fill="url(#paint1_linear_2007_36424)"/>
    <circle cx="207.571" cy="128.428" r="3.23768" fill="url(#paint2_linear_2007_36424)"/>
    <circle cx="202.175" cy="39.5718" r="7.19485" fill="url(#paint3_linear_2007_36424)"/>
    <path fill-rule="evenodd" clip-rule="evenodd" d="M128.783 117C130.154 118.419 128.01 120 126.037 120H45.9679C44.6925 120 43.6809 118.887 43.6809 117.483V100.645L76.4463 68.1288C77.3259 67.2578 78.6453 67.2578 79.5249 68.1288L128.783 117Z" fill="#D2CDE3"/>
    <path fill-rule="evenodd" clip-rule="evenodd" d="M115.546 71.4171C108.869 71.4171 103.451 65.9977 103.451 59.3203C103.451 52.643 108.869 47.2236 115.546 47.2236C122.222 47.2236 127.641 52.643 127.641 59.3203C127.641 65.9977 122.222 71.4171 115.546 71.4171Z" fill="#D2CDE3"/>
    <path fill-rule="evenodd" clip-rule="evenodd" d="M164.672 120H85.7273L132.083 74.0326C132.962 73.1617 134.282 73.1617 135.161 74.0326L167.003 105.629V117.484C166.959 118.839 165.948 120 164.672 120Z" fill="#D2CDE3"/>
    <defs>
        <linearGradient id="paint0_linear_2007_36424" x1="103.966" y1="0" x2="103.966" y2="207.212" gradientUnits="userSpaceOnUse">
            <stop stop-color="#8C75F1"/>
            <stop offset="1" stop-color="white"/>
        </linearGradient>
        <linearGradient id="paint1_linear_2007_36424" x1="5.39614" y1="51.0835" x2="5.39614" y2="61.8758" gradientUnits="userSpaceOnUse">
            <stop stop-color="white"/>
            <stop offset="1" stop-color="#DDD0FC"/>
        </linearGradient>
        <linearGradient id="paint2_linear_2007_36424" x1="207.571" y1="125.19" x2="207.571" y2="131.666" gradientUnits="userSpaceOnUse">
            <stop stop-color="white"/>
            <stop offset="1" stop-color="#DDD0FC"/>
        </linearGradient>
        <linearGradient id="paint3_linear_2007_36424" x1="202.175" y1="32.377" x2="202.175" y2="46.7667" gradientUnits="userSpaceOnUse">
            <stop stop-color="white"/>
            <stop offset="1" stop-color="#DDD0FC"/>
        </linearGradient>
    </defs>
</svg>
