<svg width="21" height="20" viewBox="0 0 21 20" fill="none" xmlns="http://www.w3.org/2000/svg">
    <path d="M8.9837 2.16658L9.79155 4.41005C10.6889 6.9 12.6497 8.86078 15.1397 9.75816L17.3831 10.566C17.5854 10.6395 17.5854 10.9262 17.3831 10.9986L15.1397 11.8065C12.6497 12.7039 10.6889 14.6646 9.79155 17.1546L8.9837 19.3981C8.91026 19.6003 8.62354 19.6003 8.5511 19.3981L7.74325 17.1546C6.84586 14.6646 4.88509 12.7039 2.39513 11.8065L0.151661 10.9986C-0.0505536 10.9252 -0.0505536 10.6385 0.151661 10.566L2.39513 9.75816C4.88509 8.86078 6.84586 6.9 7.74325 4.41005L8.5511 2.16658C8.62353 1.96336 8.91026 1.96336 8.9837 2.16658Z" fill="white"/>
    <path d="M17.2791 0.0590236L17.59 0.921647C17.9354 1.87901 18.6895 2.63314 19.6469 2.97849L20.5095 3.28947C20.5874 3.31774 20.5874 3.42776 20.5095 3.45603L19.6469 3.767C18.6895 4.11236 17.9354 4.86648 17.59 5.82385L17.2791 6.68647C17.2508 6.76441 17.1408 6.76441 17.1125 6.68647L16.8015 5.82385C16.4562 4.86648 15.702 4.11236 14.7447 3.767L13.8821 3.45603C13.8041 3.42776 13.8041 3.31774 13.8821 3.28947L14.7447 2.97849C15.702 2.63314 16.4562 1.87901 16.8015 0.921647L17.1125 0.0590236C17.1408 -0.0196745 17.2516 -0.0196745 17.2791 0.0590236Z" fill="white"/>
    <path d="M17.2658 13.9324L17.5271 14.6572C17.8172 15.4615 18.4508 16.0952 19.2552 16.3853L19.98 16.6466C20.0455 16.6703 20.0455 16.7628 19.98 16.7865L19.2552 17.0478C18.4508 17.338 17.8172 17.9716 17.5271 18.776L17.2658 19.5007C17.242 19.5662 17.1496 19.5662 17.1258 19.5007L16.8646 18.776C16.5744 17.9716 15.9408 17.338 15.1364 17.0478L14.4117 16.7865C14.3462 16.7628 14.3462 16.6703 14.4117 16.6466L15.1364 16.3853C15.9408 16.0952 16.5744 15.4615 16.8646 14.6572L17.1258 13.9324C17.1496 13.8669 17.2427 13.8669 17.2658 13.9324Z" fill="white"/>
</svg>
