<svg width="80" height="80" viewBox="0 0 80 80" fill="none" xmlns="http://www.w3.org/2000/svg">
    <mask id="path-1-inside-1_964_2618" fill="white">
        <path d="M71.4 63.3666L71.4666 63.4333C72.3666 61.4666 72.9333 59.2333 73.1666 56.7666C72.9333 59.1999 72.3 61.3999 71.4 63.3666Z"/>
    </mask>
    <path d="M71.4 63.3666L71.4666 63.4333C72.3666 61.4666 72.9333 59.2333 73.1666 56.7666C72.9333 59.1999 72.3 61.3999 71.4 63.3666Z" fill="#FF00AE"/>
    <path d="M71.4 63.3666L70.6928 64.0737L70.2015 63.5823L70.4907 62.9505L71.4 63.3666ZM71.4666 63.4333L72.3759 63.8494L71.7771 65.158L70.7595 64.1404L71.4666 63.4333ZM73.1666 56.7666L72.1712 56.6711L74.1622 56.8608L73.1666 56.7666ZM71.4 63.3666L72.1071 62.6595L72.1737 62.7262L71.4666 63.4333L70.7595 64.1404L70.6928 64.0737L71.4 63.3666ZM71.4666 63.4333L70.5573 63.0171C71.4041 61.1669 71.9466 59.045 72.1711 56.6724L73.1666 56.7666L74.1622 56.8608C73.9199 59.4216 73.3292 61.7663 72.3759 63.8494L71.4666 63.4333ZM73.1666 56.7666L74.1621 56.8621C73.9176 59.4115 73.2534 61.7195 72.3093 63.7827L71.4 63.3666L70.4907 62.9505C71.3465 61.0803 71.949 58.9884 72.1712 56.6711L73.1666 56.7666Z" fill="#FF00AE" mask="url(#path-1-inside-1_964_2618)"/>
    <path d="M49.9998 19.2334C45.8946 19.2335 42.5671 22.5618 42.5671 26.667C42.5673 30.7721 45.8946 34.0995 49.9998 34.0996C54.105 34.0996 57.4332 30.7722 57.4333 26.667C57.4333 22.5617 54.1051 19.2334 49.9998 19.2334Z" fill="#FF00AE" stroke="#FF00AE"/>
    <path d="M26.0334 6.6665H53.9667C66.1 6.6665 73.3334 13.8998 73.3334 26.0332V53.9665C73.3334 57.5998 72.7 60.7665 71.4667 63.4332C68.6 69.7665 62.4667 73.3332 53.9667 73.3332H26.0334C13.9 73.3332 6.66671 66.0998 6.66671 53.9665V46.3332V26.0332C6.66671 13.8998 13.9 6.6665 26.0334 6.6665ZM12.1 41.6665C14.7 39.4332 18.9 39.4332 21.5 41.6665L35.3667 53.5665C37.9667 55.7998 42.1667 55.7998 44.7667 53.5665L45.9 52.6332C48.2667 50.5665 52.0334 50.3665 54.7 52.1665L67.1667 60.5332C67.9 58.6665 68.3334 56.4998 68.3334 53.9665V26.0332C68.3334 16.6332 63.3667 11.6665 53.9667 11.6665H26.0334C16.6334 11.6665 11.6667 16.6332 11.6667 26.0332V42.0332L12.1 41.6665Z" fill="#FF00AE"/>
</svg>
