<svg width="60" height="60" viewBox="0 0 60 60" fill="none" xmlns="http://www.w3.org/2000/svg">
    <g clip-path="url(#clip0_1062_5041)">
        <path d="M15.6238 46.3279C11.6215 46.3279 8.06139 43.7653 6.76864 39.9502L6.6812 39.6627C6.37632 38.6524 6.24861 37.8028 6.24861 36.9527V19.907L0.183546 40.1525C-0.596503 43.1304 1.18104 46.2176 4.16344 47.0402L42.8221 57.3933C43.3046 57.5182 43.7871 57.5782 44.2622 57.5782C46.7521 57.5782 49.0272 55.9256 49.6649 53.4903L51.9171 46.3279H15.6238Z" fill="#FF00AE"/>
        <path d="M22.4993 20.0772C25.2569 20.0772 27.4991 17.8346 27.4991 15.0769C27.4991 12.3193 25.2569 10.0767 22.4993 10.0767C19.7417 10.0767 17.499 12.3193 17.499 15.0769C17.499 17.8346 19.7417 20.0772 22.4993 20.0772Z" fill="#FF00AE"/>
        <path d="M53.7497 2.57642H16.2488C12.804 2.57642 9.99878 5.38166 9.99878 8.82687V36.3272C9.99878 39.7725 12.804 42.5777 16.2488 42.5777H53.7497C57.1949 42.5777 60.0002 39.7725 60.0002 36.3272V8.82687C60.0002 5.38166 57.1949 2.57642 53.7497 2.57642ZM16.2488 7.57669H53.7497C54.44 7.57669 54.9999 8.13655 54.9999 8.82687V26.5748L47.1024 17.3593C46.2646 16.377 45.052 15.8519 43.7496 15.8221C42.4546 15.8295 41.2396 16.4044 40.4097 17.3996L31.1242 28.5446L28.0992 25.527C26.3894 23.8172 23.6066 23.8172 21.8991 25.527L14.9991 32.4247V8.82687C14.9991 8.13655 15.5589 7.57669 16.2488 7.57669Z" fill="#FF00AE"/>
    </g>
    <defs>
        <clipPath id="clip0_1062_5041">
            <rect width="60" height="60" fill="white"/>
        </clipPath>
    </defs>
</svg>
