<svg width="14" height="14" viewBox="0 0 14 14" fill="none" xmlns="http://www.w3.org/2000/svg">
    <circle cx="7" cy="7.29175" r="4.375" fill="white"/>
    <path fill-rule="evenodd" clip-rule="evenodd" d="M12.8334 7.00008C12.8334 10.2217 10.2217 12.8334 7.00002 12.8334C3.77836 12.8334 1.16669 10.2217 1.16669 7.00008C1.16669 3.77842 3.77836 1.16675 7.00002 1.16675C10.2217 1.16675 12.8334 3.77842 12.8334 7.00008ZM7.00002 10.3542C7.24164 10.3542 7.43752 10.1584 7.43752 9.91675V6.41675C7.43752 6.17513 7.24164 5.97925 7.00002 5.97925C6.7584 5.97925 6.56252 6.17513 6.56252 6.41675V9.91675C6.56252 10.1584 6.7584 10.3542 7.00002 10.3542ZM7.00002 4.08342C7.3222 4.08342 7.58335 4.34458 7.58335 4.66675C7.58335 4.98891 7.3222 5.25008 7.00002 5.25008C6.67785 5.25008 6.41669 4.98891 6.41669 4.66675C6.41669 4.34458 6.67785 4.08342 7.00002 4.08342Z" fill="#727885"/>
</svg>
