<svg width="178" height="167" viewBox="0 0 178 167" fill="none" xmlns="http://www.w3.org/2000/svg">
    <path d="M157.877 0H20.1322C9.029 0 0 9.02602 0 20.1423V146.738C0 157.842 9.029 166.858 20.1322 166.858H157.877C168.98 166.858 177.999 157.842 177.999 146.738V20.1423C178 9.02602 168.981 0 157.877 0ZM115.104 29.9555C125.841 29.9555 134.549 38.6639 134.549 49.4006C134.549 60.1373 125.841 68.8458 115.104 68.8458C104.364 68.8458 95.6587 60.1373 95.6587 49.4006C95.6587 38.6639 104.364 29.9555 115.104 29.9555ZM151.564 148.248H88.9982H29.2202C23.8497 148.248 21.458 144.363 23.8789 139.569L57.2504 73.4708C59.6684 68.6777 64.2767 68.2499 67.5402 72.5145L101.096 116.367C104.36 120.632 110.064 120.995 113.839 117.174L122.049 108.861C125.821 105.04 131.379 105.513 134.458 109.911L155.715 140.275C158.788 144.68 156.934 148.248 151.564 148.248Z" fill="white" fill-opacity="0.66"/>
</svg>
