<svg width="69" height="66" viewBox="0 0 69 66" fill="none" xmlns="http://www.w3.org/2000/svg">
    <path d="M29.9457 7.22231L32.6385 14.7006C35.6298 23.0004 42.1657 29.5363 50.4656 32.5276L57.9438 35.2205C58.6178 35.4653 58.6178 36.421 57.9438 36.6624L50.4656 39.3553C42.1657 42.3466 35.6298 48.8825 32.6385 57.1823L29.9457 64.6606C29.7009 65.3346 28.7451 65.3346 28.5037 64.6606L25.8108 57.1823C22.8195 48.8825 16.2836 42.3466 7.98378 39.3553L0.505536 36.6624C-0.168512 36.4176 -0.168512 35.4619 0.505536 35.2205L7.98378 32.5276C16.2836 29.5363 22.8195 23.0004 25.8108 14.7006L28.5037 7.22232C28.7451 6.54491 29.7009 6.54491 29.9457 7.22231Z" fill="url(#paint0_linear_902_3384)"/>
    <path d="M57.5969 0.196745L58.6335 3.07216C59.7846 6.26338 62.2984 8.77713 65.4896 9.92831L68.365 10.9649C68.6248 11.0591 68.6248 11.4259 68.365 11.5201L65.4896 12.5567C62.2984 13.7079 59.7846 16.2216 58.6335 19.4128L57.5969 22.2882C57.5026 22.548 57.1359 22.548 57.0417 22.2882L56.0051 19.4128C54.8539 16.2216 52.3402 13.7079 49.1489 12.5567L46.2735 11.5201C46.0137 11.4259 46.0137 11.0591 46.2735 10.9649L49.1489 9.92831C52.3402 8.77713 54.8539 6.26338 56.0051 3.07216L57.0417 0.196745C57.1359 -0.0655818 57.5052 -0.0655818 57.5969 0.196745Z" fill="url(#paint1_linear_902_3384)"/>
    <path d="M57.5526 46.4413L58.4236 48.8572C59.3908 51.5385 61.5028 53.6505 64.1841 54.6177L66.5999 55.4886C66.8182 55.5678 66.8182 55.8759 66.5999 55.9551L64.1841 56.826C61.5028 57.7933 59.3908 59.9053 58.4236 62.5865L57.5526 65.0024C57.4735 65.2207 57.1653 65.2207 57.0862 65.0024L56.2152 62.5865C55.248 59.9053 53.136 57.7933 50.4548 56.826L48.0389 55.9551C47.8206 55.8759 47.8206 55.5678 48.0389 55.4886L50.4548 54.6177C53.136 53.6505 55.248 51.5385 56.2152 48.8572L57.0862 46.4413C57.1653 46.2231 57.4756 46.2231 57.5526 46.4413Z" fill="url(#paint2_linear_902_3384)"/>
    <defs>
        <linearGradient id="paint0_linear_902_3384" x1="0" y1="6.71426" x2="67.0115" y2="19.1953" gradientUnits="userSpaceOnUse">
            <stop stop-color="#A30049"/>
            <stop offset="0.25" stop-color="#FF18BA"/>
            <stop offset="0.5" stop-color="#E037B3"/>
            <stop offset="0.75" stop-color="#AD01C3"/>
            <stop offset="1" stop-color="#600088"/>
        </linearGradient>
        <linearGradient id="paint1_linear_902_3384" x1="46.0787" y1="0" x2="71.8532" y2="4.80035" gradientUnits="userSpaceOnUse">
            <stop stop-color="#A30049"/>
            <stop offset="0.25" stop-color="#FF18BA"/>
            <stop offset="0.5" stop-color="#E037B3"/>
            <stop offset="0.75" stop-color="#AD01C3"/>
            <stop offset="1" stop-color="#600088"/>
        </linearGradient>
        <linearGradient id="paint2_linear_902_3384" x1="47.8752" y1="46.2776" x2="69.5305" y2="50.3112" gradientUnits="userSpaceOnUse">
            <stop stop-color="#A30049"/>
            <stop offset="0.25" stop-color="#FF18BA"/>
            <stop offset="0.5" stop-color="#E037B3"/>
            <stop offset="0.75" stop-color="#AD01C3"/>
            <stop offset="1" stop-color="#600088"/>
        </linearGradient>
    </defs>
</svg>
