<svg width="24" height="24" viewBox="0 0 24 24" fill="none" xmlns="http://www.w3.org/2000/svg">
    <path d="M21.9641 5.32315L21.605 5.43697L19.6929 5.60733L19.1528 6.46982L18.7609 6.3453L17.2391 4.97326L17.0183 4.25974L16.7227 3.49885L15.7662 2.64095L14.6379 2.42017L14.6119 2.93659L15.7173 4.01528L16.2582 4.6524L15.6501 4.9702L15.1551 4.82429L14.4133 4.51489L14.4385 3.91673L13.4652 3.51642L13.1421 4.92284L12.1612 5.14515L12.2582 5.92972L13.5363 6.1757L13.757 4.92208L14.812 5.07792L15.3025 5.36516H16.0894L16.6279 6.44385L18.0557 7.89228L17.9511 8.45531L16.7998 8.30863L14.8105 9.31321L13.3781 11.0313L13.1917 11.7922H12.6776L11.7196 11.3506L10.7891 11.7922L11.0206 12.7739L11.4255 12.3071L12.1375 12.2849L12.0878 13.1665L12.6776 13.3392L13.2666 14.0008L14.2284 13.7303L15.3269 13.9037L16.6027 14.2468L17.2398 14.3216L18.3201 15.5477L20.4049 16.7739L19.0565 19.3499L17.6333 20.0115L17.0932 21.4836L15.0336 22.8587L14.8143 23.6516C20.0794 22.3835 23.9962 17.6539 23.9962 11.9992C23.9946 9.52941 23.246 7.23071 21.9641 5.32315Z" fill="#FF00AE"/>
    <path d="M13.3774 18.2712L12.5034 16.6509L13.3056 14.9794L12.5034 14.7395L11.6028 13.835L9.60733 13.3873L8.945 12.0015V12.8243H8.65317L6.93354 10.4927V8.57753L5.67303 6.52787L3.6715 6.88463H2.32315L1.64477 6.44002L2.51031 5.754L1.64706 5.95339C0.60657 7.73032 0 9.79219 0 12.0008C0 18.6264 5.37128 24 11.9977 24C12.508 24 13.0084 23.9549 13.5034 23.8953L13.3782 22.4415C13.3782 22.4415 13.929 20.2826 13.929 20.2093C13.9282 20.1352 13.3774 18.2712 13.3774 18.2712Z" fill="#FF00AE"/>
    <path d="M4.45837 3.86937L6.58976 3.57219L7.57219 3.03361L8.67762 3.35218L10.4439 3.25439L11.0489 2.30328L11.9312 2.44843L14.0741 2.24752L14.6646 1.59664L15.4973 1.04049L16.6753 1.21772L17.1047 1.15279C15.5531 0.42246 13.8266 0 11.9969 0C8.27273 0 4.9427 1.69748 2.74408 4.36287H2.75019L4.45837 3.86937ZM12.5042 1.19328L13.7296 0.518717L14.5164 0.973262L13.3774 1.84034L12.2895 1.94958L11.7998 1.63178L12.5042 1.19328ZM8.87471 1.29183L9.41559 1.51719L10.1238 1.29183L10.5095 1.96027L8.87471 2.38961L8.08862 1.92972C8.08862 1.92972 8.85714 1.43468 8.87471 1.29183Z" fill="#FF00AE"/>
</svg>
