<svg width="16" height="16" viewBox="0 0 16 16" fill="none" xmlns="http://www.w3.org/2000/svg">
    <path d="M1.71997 12.6735L1.70664 12.6868C1.52664 12.2935 1.4133 11.8468 1.36664 11.3535C1.4133 11.8402 1.53997 12.2802 1.71997 12.6735Z" fill="#FF00AE"/>
    <path d="M6 6.91992C6.87629 6.91992 7.58666 6.20954 7.58666 5.33325C7.58666 4.45696 6.87629 3.74658 6 3.74658C5.1237 3.74658 4.41333 4.45696 4.41333 5.33325C4.41333 6.20954 5.1237 6.91992 6 6.91992Z" fill="#FF00AE"/>
    <path d="M10.7933 1.3335H5.20665C2.77998 1.3335 1.33331 2.78016 1.33331 5.20683V10.7935C1.33331 11.5202 1.45998 12.1535 1.70665 12.6868C2.27998 13.9535 3.50665 14.6668 5.20665 14.6668H10.7933C13.22 14.6668 14.6666 13.2202 14.6666 10.7935V9.26683V5.20683C14.6666 2.78016 13.22 1.3335 10.7933 1.3335ZM13.58 8.3335C13.06 7.88683 12.22 7.88683 11.7 8.3335L8.92665 10.7135C8.40665 11.1602 7.56665 11.1602 7.04665 10.7135L6.81998 10.5268C6.34665 10.1135 5.59331 10.0735 5.05998 10.4335L2.56665 12.1068C2.41998 11.7335 2.33331 11.3002 2.33331 10.7935V5.20683C2.33331 3.32683 3.32665 2.3335 5.20665 2.3335H10.7933C12.6733 2.3335 13.6666 3.32683 13.6666 5.20683V8.40683L13.58 8.3335Z" fill="#FF00AE"/>
</svg>
