<svg width="100" height="100" viewBox="0 0 100 100" fill="none" xmlns="http://www.w3.org/2000/svg">
    <path d="M45.7654 17.3611L49.1314 26.7089C52.8706 37.0837 61.0404 45.2536 71.4152 48.9928L80.763 52.3588C81.6056 52.6648 81.6056 53.8595 80.763 54.1613L71.4152 57.5274C61.0404 61.2665 52.8706 69.4364 49.1314 79.8112L45.7654 89.159C45.4594 90.0015 44.2647 90.0015 43.9629 89.159L40.5968 79.8112C36.8577 69.4364 28.6878 61.2665 18.313 57.5274L8.96523 54.1613C8.12267 53.8553 8.12267 52.6606 8.96523 52.3588L18.313 48.9928C28.6878 45.2536 36.8577 37.0837 40.5968 26.7089L43.9629 17.3611C44.2647 16.5144 45.4594 16.5144 45.7654 17.3611Z" fill="url(#paint0_linear_150_4558)"/>
    <path d="M80.3294 8.57894L81.6251 12.1732C83.0641 16.1622 86.2063 19.3044 90.1953 20.7434L93.7896 22.0391C94.1143 22.1569 94.1143 22.6153 93.7896 22.7331L90.1953 24.0289C86.2063 25.4678 83.0641 28.61 81.6251 32.5991L80.3294 36.1933C80.2116 36.518 79.7532 36.518 79.6354 36.1933L78.3397 32.5991C76.9007 28.61 73.7585 25.4678 69.7694 24.0289L66.1752 22.7331C65.8505 22.6153 65.8505 22.1569 66.1752 22.0391L69.7694 20.7434C73.7585 19.3044 76.9007 16.1622 78.3397 12.1732L79.6354 8.57894C79.7532 8.25103 80.2148 8.25103 80.3294 8.57894Z" fill="url(#paint1_linear_150_4558)"/>
    <path d="M80.2741 66.3848L81.3627 69.4047C82.5718 72.7562 85.2118 75.3962 88.5633 76.6053L91.5832 77.6939C91.856 77.7929 91.856 78.178 91.5832 78.277L88.5633 79.3657C85.2118 80.5747 82.5718 83.2147 81.3627 86.5663L80.2741 89.5861C80.1751 89.859 79.7899 89.859 79.691 89.5861L78.6023 86.5663C77.3933 83.2147 74.7533 80.5747 71.4018 79.3657L68.3819 78.277C68.109 78.178 68.109 77.7929 68.3819 77.6939L71.4018 76.6053C74.7533 75.3962 77.3933 72.7562 78.6023 69.4047L79.691 66.3848C79.7899 66.112 80.1778 66.112 80.2741 66.3848Z" fill="url(#paint2_linear_150_4558)"/>
    <defs>
        <linearGradient id="paint0_linear_150_4558" x1="8.33331" y1="16.7261" x2="92.0977" y2="32.3274" gradientUnits="userSpaceOnUse">
            <stop stop-color="#A30049"/>
            <stop offset="0.25" stop-color="#FF18BA"/>
            <stop offset="0.5" stop-color="#E037B3"/>
            <stop offset="0.75" stop-color="#AD01C3"/>
            <stop offset="1" stop-color="#600088"/>
        </linearGradient>
        <linearGradient id="paint1_linear_150_4558" x1="65.9316" y1="8.33301" x2="98.1497" y2="14.3334" gradientUnits="userSpaceOnUse">
            <stop stop-color="#A30049"/>
            <stop offset="0.25" stop-color="#FF18BA"/>
            <stop offset="0.5" stop-color="#E037B3"/>
            <stop offset="0.75" stop-color="#AD01C3"/>
            <stop offset="1" stop-color="#600088"/>
        </linearGradient>
        <linearGradient id="paint2_linear_150_4558" x1="68.1772" y1="66.1802" x2="95.2464" y2="71.2221" gradientUnits="userSpaceOnUse">
            <stop stop-color="#A30049"/>
            <stop offset="0.25" stop-color="#FF18BA"/>
            <stop offset="0.5" stop-color="#E037B3"/>
            <stop offset="0.75" stop-color="#AD01C3"/>
            <stop offset="1" stop-color="#600088"/>
        </linearGradient>
    </defs>
</svg>
