<svg width="16" height="16" viewBox="0 0 16 16" fill="none" xmlns="http://www.w3.org/2000/svg">
    <mask id="mask0_1556_7193" style="mask-type:luminance" maskUnits="userSpaceOnUse" x="0" y="0" width="16" height="16">
        <path d="M0 9.53674e-07H16V16H0V9.53674e-07Z" fill="white"/>
    </mask>
    <g mask="url(#mask0_1556_7193)">
        <path d="M15.0312 8C15.0312 11.8766 11.8766 15.0312 8 15.0312C4.12342 15.0312 0.96875 11.8766 0.96875 8C0.96875 4.12342 4.12342 0.96875 8 0.96875C11.8766 0.96875 15.0312 4.12342 15.0312 8ZM16.0312 8C16.0312 3.57114 12.4289 -0.03125 8 -0.03125C3.57114 -0.03125 -0.0312498 3.57114 -0.03125 8C-0.03125 12.4289 3.57114 16.0312 8 16.0312C12.4289 16.0312 16.0312 12.4289 16.0312 8Z" fill="#FF00AE"/>
        <path d="M11.375 8C11.375 9.99904 10.8811 11.7986 10.1836 13.084C9.83463 13.727 9.44392 14.2259 9.05371 14.5576C8.66116 14.8912 8.30067 15.0312 8 15.0312V16.0312C8.61393 16.0312 9.19568 15.749 9.70117 15.3193C10.2088 14.8878 10.6715 14.282 11.0625 13.5615C11.8451 12.1194 12.375 10.1536 12.375 8C12.375 5.8464 11.8451 3.88056 11.0625 2.43848C10.6715 1.71805 10.2088 1.11217 9.70117 0.680664C9.19568 0.251045 8.61393 -0.03125 8 -0.03125V0.96875C8.30067 0.96875 8.66116 1.10875 9.05371 1.44238C9.44392 1.77406 9.83463 2.273 10.1836 2.91602C10.8811 4.20137 11.375 6.00096 11.375 8Z" fill="#FF00AE"/>
        <path d="M3.625 8C3.625 10.1536 4.15487 12.1194 4.9375 13.5615C5.32851 14.282 5.79117 14.8878 6.29883 15.3193C6.80432 15.749 7.38607 16.0312 8 16.0312V15.0312C7.69933 15.0312 7.33884 14.8912 6.94629 14.5576C6.55608 14.2259 6.16537 13.727 5.81641 13.084C5.11887 11.7986 4.625 9.99904 4.625 8C4.625 6.00096 5.11887 4.20137 5.81641 2.91602C6.16537 2.273 6.55608 1.77406 6.94629 1.44238C7.33884 1.10875 7.69933 0.96875 8 0.96875V-0.03125C7.38607 -0.03125 6.80432 0.251045 6.29883 0.680664C5.79117 1.11217 5.32851 1.71805 4.9375 2.43848C4.15487 3.88056 3.625 5.8464 3.625 8Z" fill="#FF00AE"/>
        <path d="M15.5312 8.5V7.5H0.46875V8.5H15.5312Z" fill="#FF00AE"/>
        <path d="M7.99973 4.90601C10.2766 4.90601 12.3445 4.2594 13.8073 3.32202L13.5378 2.90112L13.2673 2.48022C11.9757 3.30773 10.0977 3.90601 7.99973 3.90601C5.90172 3.90596 4.02366 3.30783 2.73215 2.48022L2.19308 3.32202C3.65582 4.25927 5.72307 4.90596 7.99973 4.90601Z" fill="#FF00AE"/>
        <path d="M13.5377 13.0991L13.8072 12.6782C12.3444 11.7409 10.2765 11.0942 7.9996 11.0942C5.72289 11.0943 3.65571 11.7409 2.19296 12.6782L2.73203 13.52C4.02354 12.6924 5.90158 12.0943 7.9996 12.0942C10.0976 12.0942 11.9756 12.6925 13.2672 13.52L13.5377 13.0991Z" fill="#FF00AE"/>
        <path d="M8.5 15.5312V0.46875H7.5V15.5312H8.5Z" fill="#FF00AE"/>
    </g>
</svg>
