<svg width="24" height="24" viewBox="0 0 24 24" fill="none" xmlns="http://www.w3.org/2000/svg">
    <rect x="4.23877" y="8.30859" width="15.6777" height="10.3931" fill="url(#paint0_linear_59970_5938)"/>
    <path d="M17.2907 11.9685C17.2907 12.7071 16.6986 13.306 15.9681 13.306C15.2376 13.306 14.6455 12.7071 14.6455 11.9685C14.6455 11.2298 15.2376 10.6309 15.9681 10.6309C16.6986 10.6309 17.2907 11.2298 17.2907 11.9685Z" fill="white"/>
    <path fill-rule="evenodd" clip-rule="evenodd" d="M18.1316 7.40774C17.2832 7.28707 16.1897 7.28709 14.8267 7.28711H9.17326C7.81031 7.28709 6.7168 7.28707 5.86839 7.40774C4.99062 7.53258 4.25955 7.80047 3.71603 8.42826C3.17252 9.05604 3.00655 9.82426 3.00019 10.7206C2.99404 11.5869 3.13858 12.6831 3.31873 14.0493L3.68419 16.8211C3.825 17.8892 3.93897 18.7537 4.11616 19.4307C4.3006 20.1353 4.57289 20.7195 5.08383 21.1718C5.59477 21.6242 6.20337 21.8198 6.91841 21.9116C7.60534 21.9998 8.46777 21.9998 9.53332 21.9998H14.4667C15.5322 21.9998 16.3947 21.9998 17.0816 21.9116C17.7966 21.8198 18.4052 21.6242 18.9162 21.1718C19.4271 20.7195 19.6994 20.1353 19.8838 19.4307C20.061 18.7537 20.175 17.8892 20.3158 16.8211L20.6813 14.0493C20.8614 12.6831 21.006 11.5869 20.9998 10.7206C20.9934 9.82426 20.8275 9.05604 20.284 8.42826C19.7404 7.80047 19.0094 7.53258 18.1316 7.40774ZM6.05259 8.73222C5.32568 8.83561 4.95802 9.02417 4.71116 9.30931C4.4643 9.59445 4.32805 9.98791 4.32278 10.7302C4.31738 11.4915 4.44802 12.4942 4.63662 13.9246L4.68663 14.3039L5.05822 14.0317C6.0171 13.3294 7.43388 13.364 8.34576 14.1272L11.7301 16.9601C12.0499 17.2278 12.6011 17.2779 12.9989 17.0438L13.2341 16.9055C14.3594 16.2435 15.8676 16.3133 16.9059 17.0956L18.7378 18.4755C18.8281 17.9799 18.909 17.3706 19.0107 16.5996L19.3634 13.9246C19.552 12.4942 19.6826 11.4915 19.6772 10.7302C19.6719 9.98791 19.5357 9.59445 19.2888 9.30931C19.042 9.02417 18.6743 8.83561 17.9474 8.73222C17.2019 8.62618 16.2018 8.62462 14.7748 8.62462H9.22521C7.79821 8.62462 6.7981 8.62618 6.05259 8.73222Z" fill="url(#paint1_linear_59970_5938)"/>
    <path d="M8.85899 2.00001H15.1411C15.3503 1.99995 15.5107 1.99991 15.6509 2.01515C16.648 2.12351 17.464 2.78957 17.8101 3.68676H6.18994C6.53601 2.78957 7.35208 2.12351 8.34912 2.01515C8.48935 1.99991 8.64976 1.99995 8.85899 2.00001Z" fill="url(#paint2_linear_59970_5938)"/>
    <path d="M8.19998 14.1079C6.49068 12.7406 4.43457 14.3749 4.43457 14.3749C4.43457 14.3749 4.7389 18.819 5.63624 20.1436C6.53359 21.4683 18.3486 20.7846 18.3486 20.7846C19.1228 20.4159 18.9255 19.0914 18.6691 18.5145C18.3486 17.7934 17.0934 16.9121 15.6512 16.5115C14.2091 16.1109 13.8886 16.9655 12.3129 17.2326C10.7372 17.4997 10.3366 15.817 8.19998 14.1079Z" fill="white"/>
    <path d="M6.87958 4.5C5.62801 4.5 4.60178 5.33974 4.2593 6.45377C4.25216 6.477 4.24532 6.50034 4.23877 6.5238C4.59711 6.40323 4.97004 6.32446 5.34756 6.27068C6.31989 6.13218 7.5487 6.13225 8.97613 6.13234H9.08273H15.179C16.6064 6.13225 17.8352 6.13218 18.8075 6.27068C19.1851 6.32446 19.5581 6.40323 19.9164 6.5238C19.9099 6.50034 19.903 6.477 19.8959 6.45377C19.5534 5.33974 18.5272 4.5 17.2755 4.5H6.87958Z" fill="url(#paint3_linear_59970_5938)"/>
    <defs>
        <linearGradient id="paint0_linear_59970_5938" x1="4.23877" y1="13.5051" x2="19.9165" y2="13.5051" gradientUnits="userSpaceOnUse">
            <stop stop-color="#1D1EF3"/>
            <stop offset="1" stop-color="#804DF5"/>
        </linearGradient>
        <linearGradient id="paint1_linear_59970_5938" x1="3" y1="14.6434" x2="21" y2="14.6434" gradientUnits="userSpaceOnUse">
            <stop stop-color="#1D1EF3"/>
            <stop offset="1" stop-color="#804DF5"/>
        </linearGradient>
        <linearGradient id="paint2_linear_59970_5938" x1="6.18994" y1="2.84338" x2="17.8101" y2="2.84338" gradientUnits="userSpaceOnUse">
            <stop stop-color="#1D1EF3"/>
            <stop offset="1" stop-color="#804DF5"/>
        </linearGradient>
        <linearGradient id="paint3_linear_59970_5938" x1="4.23877" y1="5.5119" x2="19.9164" y2="5.5119" gradientUnits="userSpaceOnUse">
            <stop stop-color="#1D1EF3"/>
            <stop offset="1" stop-color="#804DF5"/>
        </linearGradient>
    </defs>
</svg>
