<svg width="24" height="24" viewBox="0 0 24 24" fill="none" xmlns="http://www.w3.org/2000/svg">
    <path d="M2.38351 13.793C1.93748 10.6294 1.71447 9.04765 2.66232 8.02383C3.61017 7 5.29758 7 8.67239 7H15.3276C18.7024 7 20.3898 7 21.3377 8.02383C22.2855 9.04765 22.0625 10.6294 21.6165 13.793L21.1935 16.793C20.8437 19.2739 20.6689 20.5143 19.7717 21.2572C18.8745 22 17.5512 22 14.9046 22H9.09536C6.44881 22 5.12553 22 4.22834 21.2572C3.33115 20.5143 3.15626 19.2739 2.80648 16.793L2.38351 13.793Z" stroke="#3C3C43" stroke-opacity="0.4" stroke-width="1.5"/>
    <path d="M19.5851 6.41146C19.8138 5.10669 18.7838 4.5 17.4592 4.5H6.53535C5.2107 4.5 4.23259 5.10669 4.46121 6.41146" stroke="#3C3C43" stroke-opacity="0.4" stroke-width="1.5"/>
    <path d="M17.5285 3.74292C17.5308 2.71929 16.7701 2.12064 15.7523 2.01142C15.6459 2 15.5156 2 15.255 2H8.73722C8.47658 2 8.34625 2 8.23985 2.01142C7.22207 2.12064 6.44065 2.71929 6.44288 3.74291" stroke="#3C3C43" stroke-opacity="0.4" stroke-width="1.5"/>
    <path d="M16.5 13C17.3284 13 18 12.3284 18 11.5C18 10.6716 17.3284 10 16.5 10C15.6716 10 15 10.6716 15 11.5C15 12.3284 15.6716 13 16.5 13Z" stroke="#796AF7" stroke-width="1.5"/>
    <path d="M19.1721 19.4852L17.116 17.8514C16.1859 17.1586 14.8007 17.0896 13.7769 17.6851L13.5101 17.8403C12.7987 18.2542 11.8307 18.1848 11.2159 17.6758L7.3777 14.4989C6.61162 13.8648 5.38277 13.8309 4.56742 14.4214L4.03809 14.8528" stroke="#796AF7" stroke-width="1.5" stroke-linecap="round"/>
</svg>
