<svg width="71" height="67" viewBox="0 0 71 67" fill="none" xmlns="http://www.w3.org/2000/svg">
    <path d="M62.9735 0H8.03025C3.60146 0 0 3.60027 0 8.03429V58.5305C0 62.9593 3.60146 66.5557 8.03025 66.5557H62.9733C67.4021 66.5557 70.9998 62.9593 70.9998 58.5305V8.03429C71 3.60027 67.4023 0 62.9735 0ZM45.9122 11.9485C50.1951 11.9485 53.6684 15.4221 53.6684 19.7047C53.6684 23.9874 50.1948 27.461 45.9122 27.461C41.6282 27.461 38.156 23.9874 38.156 19.7047C38.156 15.4221 41.6282 11.9485 45.9122 11.9485ZM60.4552 59.1327H35.4993H11.6552C9.51309 59.1327 8.55907 57.5829 9.52474 55.6708L22.8358 29.3058C23.8003 27.3939 25.6385 27.2233 26.9402 28.9243L40.325 46.4161C41.6267 48.1173 43.902 48.2621 45.4079 46.7379L48.6823 43.4221C50.187 41.8979 52.404 42.0866 53.6321 43.8409L62.111 55.9524C63.3367 57.7093 62.5973 59.1327 60.4552 59.1327Z" fill="#DCDEE1"/>
</svg>
