<svg width="55" height="58" viewBox="0 0 55 58" fill="none" xmlns="http://www.w3.org/2000/svg">
    <path d="M27.1196 14.499C18.0963 14.499 10.7295 21.8544 10.7295 30.8777C10.7295 39.901 18.0963 47.2649 27.1196 47.2649C36.143 47.2649 43.4956 39.901 43.4956 30.8777C43.4956 21.8544 36.143 14.499 27.1196 14.499ZM29.2919 24.6478V29.9855L32.9077 34.6257C33.755 35.4748 33.755 36.8496 32.9077 37.6987C32.0576 38.5516 30.6763 38.5516 29.8262 37.6987L25.2588 32.0106C25.2579 32.0087 25.257 32.0068 25.256 32.0051C25.0497 31.6664 24.9372 31.2746 24.936 30.8779V24.648C24.9375 23.4444 25.9161 22.4709 27.1174 22.474C28.3187 22.477 29.2904 23.4487 29.2919 24.6478Z" fill="#FF00AE"/>
    <path d="M27.0455 0.00105544C26.6858 0.0122336 26.3345 0.112475 26.023 0.292793L19.5146 4.04829C19.1834 4.2391 18.9084 4.51376 18.7172 4.84465C18.526 5.17553 18.4253 5.55099 18.4253 5.93315C18.4253 6.31532 18.526 6.69073 18.7172 7.02162C18.9084 7.3525 19.1834 7.62717 19.5146 7.81797L26.023 11.5848C26.3538 11.7764 26.7291 11.8774 27.1113 11.8777C27.4935 11.878 27.869 11.7777 28.2001 11.5868C28.5312 11.3958 28.8061 11.121 28.9972 10.79C29.1883 10.4591 29.2888 10.0836 29.2886 9.70141V2.17623C29.2887 1.88478 29.2303 1.59628 29.1167 1.32786C29.0032 1.05944 28.8369 0.816567 28.6276 0.613675C28.4184 0.410783 28.1705 0.252016 27.8987 0.146778C27.627 0.0415396 27.3368 -0.00802278 27.0455 0.00105544Z" fill="#FF00AE"/>
    <path d="M27.1145 3.76074C25.9149 3.76195 24.9427 4.73413 24.9415 5.93374C24.9367 7.13757 25.9107 8.1163 27.1145 8.11745C39.7093 8.11745 49.8723 18.2847 49.8723 30.8858C49.8723 43.4869 39.7093 53.6541 27.1145 53.6541C14.5197 53.6541 4.35673 43.4869 4.35673 30.8858C4.35673 29.002 4.58062 27.1727 5.00971 25.4265C5.2975 24.2588 4.58298 23.0791 3.41474 22.7932C2.24696 22.5055 1.06728 23.2201 0.781429 24.3882C0.269695 26.4705 0 28.6507 0 30.8858C0 45.837 12.1677 58.0001 27.1145 58.0001C42.0613 58.0001 54.2183 45.837 54.2183 30.8858C54.2183 15.9346 42.0613 3.76074 27.1145 3.76074ZM12.5029 8.03181L12.4491 8.07563C11.4185 8.68229 11.0688 10.0056 11.6677 11.0407C12.2696 12.0759 13.5949 12.43 14.6329 11.8328C14.7953 11.7386 14.8734 11.6904 14.8684 11.6936C15.8762 11.0403 16.1638 9.69371 15.5106 8.6857C14.9798 7.85938 13.7799 7.29455 12.5029 8.03181ZM7.24692 12.432C6.43172 13.3131 6.48441 14.688 7.36465 15.5041C8.2458 16.3193 9.62072 16.2666 10.4368 15.3863L10.7794 15.0224C11.6173 14.1645 11.6028 12.7903 10.746 11.9511C9.88917 11.1119 8.51492 11.1266 7.67501 11.984L7.24692 12.432ZM3.15782 18.1689C2.59244 19.23 2.9952 20.5486 4.05699 21.1126C5.1181 21.678 6.43664 21.2754 7.00073 20.2135C7.13814 19.9548 7.2826 19.6945 7.42894 19.4428C8.02609 18.4049 7.67201 17.0794 6.6368 16.4776C6.13877 16.1871 5.54588 16.1066 4.98787 16.2524C4.42986 16.3987 3.95235 16.7604 3.66094 17.2588C3.66094 17.2588 3.3206 17.8628 3.15782 18.1689Z" fill="#FF00AE"/>
</svg>
