<svg width="80" height="80" viewBox="0 0 80 80" fill="none" xmlns="http://www.w3.org/2000/svg">
    <path d="M40.0008 80C62.0922 80 80.0008 62.0914 80.0008 40C80.0008 17.9086 62.0922 0 40.0008 0C17.9094 0 0.000793457 17.9086 0.000793457 40C0.000793457 62.0914 17.9094 80 40.0008 80Z" fill="#FBE136"/>
    <path d="M68.2019 21.58C68.2019 30.803 55.576 24.5544 40.001 24.5544C24.4259 24.5544 11.8 30.8025 11.8 21.58C11.8 12.3575 24.4259 4.88037 40.001 4.88037C55.576 4.88086 68.2019 12.3575 68.2019 21.58Z" fill="#FFE959"/>
    <path opacity="0.3" d="M40.0005 73.4025C18.4858 73.4025 0.94581 57.8163 0.0437183 38.2793C0.0194294 38.8501 0 39.4228 0 39.9994C0 62.0907 17.9087 79.9994 40 79.9994C62.0913 79.9994 80 62.0907 80 39.9994C80 39.4223 79.9806 38.8501 79.9563 38.2793C79.0556 57.8159 61.5152 73.4025 40.0005 73.4025Z" fill="#FBE136"/>
    <path d="M14.8872 54.0658C19.5334 54.0658 23.2999 51.919 23.2999 49.2707C23.2999 46.6224 19.5334 44.4756 14.8872 44.4756C10.241 44.4756 6.47449 46.6224 6.47449 49.2707C6.47449 51.919 10.241 54.0658 14.8872 54.0658Z" fill="#FFC9CA"/>
    <path d="M64.6528 54.0658C69.299 54.0658 73.0655 51.919 73.0655 49.2707C73.0655 46.6224 69.299 44.4756 64.6528 44.4756C60.0066 44.4756 56.2401 46.6224 56.2401 49.2707C56.2401 51.919 60.0066 54.0658 64.6528 54.0658Z" fill="#FFC9CA"/>
    <path d="M45.7575 54.6936H34.2435C33.3157 54.6936 32.5632 53.9416 32.5632 53.0133C32.5632 52.0855 33.3157 51.333 34.2435 51.333H45.7575C46.6853 51.333 47.4378 52.085 47.4378 53.0133C47.4378 53.9416 46.6853 54.6936 45.7575 54.6936Z" fill="#3F1507"/>
    <path d="M23.5307 45.2633C25.4591 45.2633 27.0224 43.7 27.0224 41.7716C27.0224 39.8431 25.4591 38.2798 23.5307 38.2798C21.6022 38.2798 20.0389 39.8431 20.0389 41.7716C20.0389 43.7 21.6022 45.2633 23.5307 45.2633Z" fill="#3F1507"/>
    <path d="M56.4708 45.2633C58.3993 45.2633 59.9626 43.7 59.9626 41.7716C59.9626 39.8431 58.3993 38.2798 56.4708 38.2798C54.5424 38.2798 52.9791 39.8431 52.9791 41.7716C52.9791 43.7 54.5424 45.2633 56.4708 45.2633Z" fill="#3F1507"/>
</svg>
