<svg width="80" height="80" viewBox="0 0 80 80" fill="none" xmlns="http://www.w3.org/2000/svg">
    <path d="M40 80C62.0914 80 80 62.0914 80 40C80 17.9086 62.0914 0 40 0C17.9086 0 0 17.9086 0 40C0 62.0914 17.9086 80 40 80Z" fill="#FBE136"/>
    <path d="M68.201 21.58C68.201 30.803 55.5751 24.5544 40.0001 24.5544C24.4251 24.5544 11.7992 30.8025 11.7992 21.58C11.7992 12.357 24.4251 4.88037 40.0001 4.88037C55.5751 4.88037 68.201 12.357 68.201 21.58Z" fill="#FFE959"/>
    <path opacity="0.3" d="M40 73.4026C18.4853 73.4026 0.94532 57.8163 0.0432291 38.2793C0.0189402 38.8501 0 39.4228 0 39.9994C0 62.0912 17.9087 79.9995 40 79.9995C62.0913 79.9995 80 62.0907 80 39.9994C80 39.4223 79.9806 38.8501 79.9567 38.2793C79.0547 57.8163 61.5142 73.4026 40 73.4026Z" fill="#FBE136"/>
    <path d="M41.0114 66.1388C40.4037 66.1388 39.9116 65.6468 39.9116 65.0391C39.9116 64.4313 40.4037 63.9392 41.0114 63.9392C42.2798 63.9392 43.3111 62.9079 43.3111 61.6405C43.3111 60.3722 42.2798 59.3408 41.0114 59.3408C40.4037 59.3408 39.9116 58.8488 39.9116 58.2411C39.9116 57.6329 40.4037 57.1412 41.0114 57.1412C42.2798 57.1412 43.3111 56.1099 43.3111 54.8416C43.3111 53.5732 42.2798 52.5419 41.0114 52.5419C40.4037 52.5419 39.9116 52.0498 39.9116 51.4421C39.9116 50.8344 40.4037 50.3423 41.0114 50.3423C43.4928 50.3423 45.5107 52.3607 45.5107 54.8416C45.5107 56.1969 44.9084 57.4152 43.9553 58.2411C44.9079 59.0669 45.5107 60.2852 45.5107 61.6405C45.5107 64.1209 43.4928 66.1388 41.0114 66.1388Z" fill="#3F1507"/>
    <path d="M15.1169 53.6117C19.7632 53.6117 23.5297 51.4649 23.5297 48.8166C23.5297 46.1683 19.7632 44.0215 15.1169 44.0215C10.4707 44.0215 6.70422 46.1683 6.70422 48.8166C6.70422 51.4649 10.4707 53.6117 15.1169 53.6117Z" fill="#FFC9CA"/>
    <path d="M64.8826 53.6117C69.5288 53.6117 73.2953 51.4649 73.2953 48.8166C73.2953 46.1683 69.5288 44.0215 64.8826 44.0215C60.2363 44.0215 56.4698 46.1683 56.4698 48.8166C56.4698 51.4649 60.2363 53.6117 64.8826 53.6117Z" fill="#FFC9CA"/>
    <path d="M30.6162 46.2262C29.8589 46.2262 29.2444 45.6117 29.2444 44.8539C29.2444 41.7031 26.6814 39.1392 23.5306 39.1392C20.3799 39.1392 17.816 41.7031 17.816 44.8539C17.816 45.6117 17.2014 46.2262 16.4436 46.2262C15.6863 46.2262 15.0713 45.6117 15.0713 44.8539C15.0713 40.1899 18.8662 36.395 23.5302 36.395C28.1941 36.395 31.9881 40.1899 31.9881 44.8539C31.9886 45.6117 31.3735 46.2262 30.6162 46.2262Z" fill="#3F1507"/>
    <path d="M49.3833 46.2262C50.1406 46.2262 50.7556 45.6117 50.7556 44.8539C50.7556 41.7031 53.3186 39.1392 56.4694 39.1392C59.6201 39.1392 62.1841 41.7031 62.1841 44.8539C62.1841 45.6117 62.7986 46.2262 63.5564 46.2262C64.3142 46.2262 64.9287 45.6117 64.9287 44.8539C64.9287 40.1899 61.1338 36.395 56.4699 36.395C51.8059 36.395 48.012 40.1899 48.012 44.8539C48.0115 45.6117 48.626 46.2262 49.3833 46.2262Z" fill="#3F1507"/>
</svg>
