<svg width="80" height="80" viewBox="0 0 80 80" fill="none" xmlns="http://www.w3.org/2000/svg">
    <path d="M40.0001 79.8749C62.0914 79.8749 79.9999 61.9943 79.9999 39.9374C79.9999 17.8806 62.0914 0 40.0001 0C17.9089 0 0.000366211 17.8806 0.000366211 39.9374C0.000366211 61.9943 17.9089 79.8749 40.0001 79.8749Z" fill="#FBE136"/>
    <path d="M68.2014 21.5461C68.2014 30.7546 55.5756 24.5158 40.0007 24.5158C24.4257 24.5158 11.7999 30.7541 11.7999 21.5461C11.7999 12.3375 24.4257 4.87256 40.0007 4.87256C55.5751 4.87304 68.2014 12.3375 68.2014 21.5461Z" fill="#FFE959"/>
    <path opacity="0.3" d="M40.0003 73.2876C18.4857 73.2876 0.945804 57.7257 0.0437181 38.2192C0.0194293 38.7891 0 39.361 0 39.9367C0 61.9939 17.9086 79.8741 39.9998 79.8741C62.0914 79.8741 79.9995 61.9934 79.9995 39.9367C79.9995 39.3605 79.9801 38.7891 79.9558 38.2192C79.0552 57.7257 61.5148 73.2876 40.0003 73.2876Z" fill="#FBE136"/>
    <path d="M40.0002 35.3628C44.242 35.3628 47.693 38.8084 47.693 43.0436C47.693 43.8545 47.0348 44.5117 46.2225 44.5117C45.4103 44.5117 44.7521 43.8545 44.7521 43.0436C44.7521 40.4274 42.6205 38.2991 40.0002 38.2991C37.38 38.2991 35.2484 40.4274 35.2484 43.0436C35.2484 43.8545 34.5901 44.5117 33.7779 44.5117C32.9657 44.5117 32.3075 43.8545 32.3075 43.0436C32.3075 38.8089 35.7584 35.3628 40.0002 35.3628Z" fill="#3F1507"/>
    <path d="M15.1177 44.4454C19.7639 44.4454 23.5304 42.3019 23.5304 39.6577C23.5304 37.0136 19.7639 34.8701 15.1177 34.8701C10.4716 34.8701 6.70508 37.0136 6.70508 39.6577C6.70508 42.3019 10.4716 44.4454 15.1177 44.4454Z" fill="#FFC9CA"/>
    <path d="M64.883 44.4454C69.5292 44.4454 73.2957 42.3019 73.2957 39.6577C73.2957 37.0136 69.5292 34.8701 64.883 34.8701C60.2368 34.8701 56.4703 37.0136 56.4703 39.6577C56.4703 42.3019 60.2368 44.4454 64.883 44.4454Z" fill="#FFC9CA"/>
    <path d="M23.2987 37.7566C20.7382 37.7566 18.4201 36.5455 16.8909 34.6757V79.8751H29.7654V34.5977C28.2371 36.5106 25.8938 37.7566 23.2987 37.7566Z" fill="#29ABE2"/>
    <path d="M56.4408 37.7566C53.8803 37.7566 51.5622 36.5455 50.033 34.6757V79.8751H62.9075V34.5977C61.3797 36.5106 59.0358 37.7566 56.4408 37.7566Z" fill="#29ABE2"/>
    <path d="M49.3839 29.106C50.1412 29.106 50.7562 29.7195 50.7562 30.4761C50.7562 33.622 53.3192 36.1819 56.4699 36.1819C59.6207 36.1819 62.1846 33.622 62.1846 30.4761C62.1846 29.7195 62.7991 29.106 63.5569 29.106C64.3142 29.106 64.9292 29.7195 64.9292 30.4761C64.9292 35.1328 61.1344 38.9218 56.4704 38.9218C51.8065 38.9218 48.0126 35.1328 48.0126 30.4761C48.0121 29.7195 48.6266 29.106 49.3839 29.106Z" fill="#3F1507"/>
    <path d="M30.617 29.106C29.8596 29.106 29.2446 29.7195 29.2446 30.4761C29.2446 33.622 26.6817 36.1819 23.531 36.1819C20.3802 36.1819 17.8163 33.622 17.8163 30.4761C17.8163 29.7195 17.2018 29.106 16.444 29.106C15.6866 29.106 15.0717 29.7195 15.0717 30.4761C15.0717 35.1328 18.8665 38.9218 23.5305 38.9218C28.1944 38.9218 31.9883 35.1328 31.9883 30.4761C31.9888 29.7195 31.3743 29.106 30.617 29.106Z" fill="#3F1507"/>
    <path d="M33.6619 80.0006C33.7197 79.7348 33.7517 79.4594 33.7517 79.1761C33.7517 77.5654 32.7705 76.184 31.3719 75.5943C31.1703 73.6367 29.5143 72.1104 27.5008 72.1104C25.5921 72.1104 24.0071 73.4835 23.6753 75.2936C23.6529 75.2931 23.6311 75.2901 23.6082 75.2901C23.547 75.2901 23.4873 75.2964 23.4266 75.2994C22.9282 73.7269 21.4558 72.5871 19.7162 72.5871C17.9766 72.5871 16.5043 73.7274 16.0058 75.2994C15.9451 75.2964 15.8854 75.2901 15.8242 75.2901C13.6746 75.2901 11.9321 77.0299 11.9321 79.1761C11.9321 79.4594 11.9642 79.7344 12.022 80.0006H33.6619Z" fill="#73C1E2"/>
    <path d="M46.3391 80.0006C46.2818 79.7348 46.2493 79.4594 46.2493 79.1761C46.2493 77.5654 47.2305 76.184 48.6291 75.5943C48.8307 73.6367 50.4867 72.1104 52.5002 72.1104C54.4089 72.1104 55.9939 73.4835 56.3257 75.2936C56.3481 75.2931 56.3699 75.2901 56.3928 75.2901C56.454 75.2901 56.5137 75.2964 56.5744 75.2994C57.0728 73.7269 58.5452 72.5871 60.2848 72.5871C62.0244 72.5871 63.4967 73.7274 63.9952 75.2994C64.0559 75.2964 64.1156 75.2901 64.1768 75.2901C66.3264 75.2901 68.0689 77.0299 68.0689 79.1761C68.0689 79.4594 68.0368 79.7344 67.979 80.0006H46.3391Z" fill="#73C1E2"/>
</svg>
