<svg width="80" height="80" viewBox="0 0 80 80" fill="none" xmlns="http://www.w3.org/2000/svg">
    <path d="M40.0008 80C62.0922 80 80.0008 62.0914 80.0008 40C80.0008 17.9086 62.0922 0 40.0008 0C17.9094 0 0.000793457 17.9086 0.000793457 40C0.000793457 62.0914 17.9094 80 40.0008 80Z" fill="#FBE136"/>
    <path d="M68.2022 21.58C68.2022 30.803 55.5764 24.5544 40.0013 24.5544C24.4263 24.5544 11.8004 30.8025 11.8004 21.58C11.8004 12.357 24.4263 4.88037 40.0013 4.88037C55.5764 4.88037 68.2022 12.357 68.2022 21.58Z" fill="#FFE959"/>
    <path opacity="0.3" d="M40.0005 73.403C18.4858 73.403 0.945811 57.8168 0.0437202 38.2798C0.0194312 38.8511 0 39.4233 0 39.9999C0 62.0917 17.9087 79.9999 40 79.9999C62.0913 79.9999 80 62.0912 80 39.9999C80 39.4228 79.9806 38.8506 79.9568 38.2798C79.0556 57.8163 61.5151 73.403 40.0005 73.403Z" fill="#FBE136"/>
    <path d="M39.9126 66.4177C35.6708 66.4177 32.2193 62.9667 32.2193 58.7249C32.2193 57.9126 32.8775 57.2544 33.6897 57.2544C34.502 57.2544 35.1602 57.9126 35.1602 58.7249C35.1602 61.3452 37.2918 63.4767 39.9121 63.4767C42.5324 63.4767 44.664 61.3452 44.664 58.7249C44.664 57.9126 45.3222 57.2544 46.1344 57.2544C46.9467 57.2544 47.6049 57.9126 47.6049 58.7249C47.6054 62.9662 44.1544 66.4177 39.9126 66.4177Z" fill="#3F1507"/>
    <path d="M15.0292 56.7602C19.6754 56.7602 23.4419 54.6133 23.4419 51.965C23.4419 49.3168 19.6754 47.1699 15.0292 47.1699C10.383 47.1699 6.61646 49.3168 6.61646 51.965C6.61646 54.6133 10.383 56.7602 15.0292 56.7602Z" fill="#FFC9CA"/>
    <path d="M64.7949 56.7602C69.4411 56.7602 73.2076 54.6133 73.2076 51.965C73.2076 49.3168 69.4411 47.1699 64.7949 47.1699C60.1487 47.1699 56.3822 49.3168 56.3822 51.965C56.3822 54.6133 60.1487 56.7602 64.7949 56.7602Z" fill="#FFC9CA"/>
    <path d="M30.5364 30.377C28.3164 30.377 26.3577 31.4923 25.1845 33.1877C25.1845 33.1877 24.7891 33.7803 24.1625 33.7803C23.5358 33.7803 23.1404 33.1877 23.1404 33.1877C21.9672 31.4923 20.0086 30.377 17.7881 30.377C14.2001 30.377 11.2932 33.2829 11.2932 36.8747C11.2932 37.721 11.4603 38.5278 11.7542 39.2696C13.5735 44.9183 21.7112 51.5623 24.162 51.8037C26.6127 51.5627 34.7505 44.9187 36.5693 39.2696C36.8661 38.5278 37.0307 37.7205 37.0307 36.8747C37.0312 33.2834 34.1248 30.377 30.5364 30.377Z" fill="#FD5A5B"/>
    <path d="M49.4641 30.377C45.8761 30.377 42.9692 33.2829 42.9692 36.8747C42.9692 37.721 43.1339 38.5278 43.4307 39.2696C45.2495 44.9183 53.3877 51.5623 55.838 51.8037C58.2892 51.5627 66.4265 44.9187 68.2458 39.2696C68.5401 38.5278 68.7068 37.7205 68.7068 36.8747C68.7068 33.2829 65.7999 30.377 62.2119 30.377C59.9914 30.377 58.0327 31.4923 56.8596 33.1877C56.8596 33.1877 56.4642 33.7803 55.8375 33.7803C55.2114 33.7803 54.8154 33.1877 54.8154 33.1877C53.6433 31.4923 51.6841 30.377 49.4641 30.377Z" fill="#FD5A5B"/>
</svg>
