<svg width="20" height="20" viewBox="0 0 20 20" fill="none" xmlns="http://www.w3.org/2000/svg">
    <g clip-path="url(#clip0_59031_3469)">
        <g clip-path="url(#clip1_59031_3469)">
            <path d="M14.4175 8.74991H19.3325C19.3919 8.74993 19.45 8.76687 19.5001 8.79874C19.5502 8.83062 19.5902 8.8761 19.6154 8.92988C19.6406 8.98365 19.6499 9.04349 19.6423 9.10238C19.6347 9.16127 19.6105 9.21678 19.5725 9.26241L17.115 12.2124C17.0857 12.2476 17.049 12.2759 17.0075 12.2953C16.966 12.3147 16.9208 12.3248 16.875 12.3248C16.8292 12.3248 16.784 12.3147 16.7425 12.2953C16.701 12.2759 16.6643 12.2476 16.635 12.2124L14.1775 9.26241C14.1395 9.21678 14.1153 9.16127 14.1077 9.10238C14.1001 9.04349 14.1094 8.98365 14.1346 8.92988C14.1598 8.8761 14.1998 8.83062 14.2499 8.79874C14.3 8.76687 14.3581 8.74993 14.4175 8.74991ZM0.667486 11.2499H5.58249C5.64187 11.2499 5.70001 11.2329 5.75011 11.2011C5.80021 11.1692 5.84019 11.1237 5.86537 11.0699C5.89056 11.0162 5.8999 10.9563 5.8923 10.8974C5.88471 10.8385 5.86049 10.783 5.82249 10.7374L3.36499 7.78741C3.33566 7.75224 3.29896 7.72395 3.25749 7.70453C3.21601 7.68511 3.17078 7.67505 3.12499 7.67505C3.07919 7.67505 3.03396 7.68511 2.99249 7.70453C2.95101 7.72395 2.91431 7.75224 2.88499 7.78741L0.427486 10.7374C0.389483 10.783 0.365266 10.8385 0.35767 10.8974C0.350074 10.9563 0.359415 11.0162 0.384597 11.0699C0.40978 11.1237 0.449762 11.1692 0.499862 11.2011C0.549962 11.2329 0.608106 11.2499 0.667486 11.2499Z" fill="black"/>
            <path fill-rule="evenodd" clip-rule="evenodd" d="M10 3.74992C8.06001 3.74992 6.32501 4.63367 5.17876 6.02242C5.12758 6.08877 5.06357 6.14414 4.99056 6.18525C4.91755 6.22636 4.83701 6.25237 4.75375 6.26173C4.67048 6.27109 4.58618 6.26362 4.50586 6.23974C4.42554 6.21587 4.35084 6.1761 4.28621 6.12278C4.22157 6.06946 4.16831 6.00368 4.1296 5.92937C4.0909 5.85505 4.06753 5.77371 4.06088 5.69019C4.05424 5.60666 4.06446 5.52265 4.09094 5.44315C4.11742 5.36365 4.15961 5.29029 4.21501 5.22742C5.13025 4.11933 6.3445 3.29744 7.71334 2.85949C9.08218 2.42155 10.548 2.38599 11.9365 2.75704C13.3249 3.12808 14.5776 3.89013 15.5455 4.95253C16.5134 6.01494 17.1558 7.33299 17.3963 8.74992H16.125C15.8368 7.33822 15.0698 6.06943 13.9536 5.15829C12.8375 4.24715 11.4408 3.74963 10 3.74992ZM3.87501 11.2499C4.11165 12.4057 4.67045 13.471 5.48686 14.3226C6.30326 15.1742 7.34396 15.7775 8.48871 16.0628C9.63347 16.348 10.8356 16.3036 11.9561 15.9346C13.0767 15.5656 14.07 14.887 14.8213 13.9774C14.8724 13.9111 14.9364 13.8557 15.0095 13.8146C15.0825 13.7735 15.163 13.7475 15.2463 13.7381C15.3295 13.7288 15.4138 13.7362 15.4942 13.7601C15.5745 13.784 15.6492 13.8238 15.7138 13.8771C15.7785 13.9304 15.8317 13.9962 15.8704 14.0705C15.9091 14.1448 15.9325 14.2261 15.9391 14.3097C15.9458 14.3932 15.9356 14.4772 15.9091 14.5567C15.8826 14.6362 15.8404 14.7096 15.785 14.7724C14.8698 15.8805 13.6555 16.7024 12.2867 17.1404C10.9178 17.5783 9.45201 17.6139 8.06354 17.2428C6.67507 16.8718 5.42239 16.1097 4.4545 15.0473C3.4866 13.9849 2.84422 12.6669 2.60376 11.2499H3.87501Z" fill="black"/>
        </g>
    </g>
    <defs>
        <clipPath id="clip0_59031_3469">
            <rect width="20" height="20" fill="white"/>
        </clipPath>
        <clipPath id="clip1_59031_3469">
            <rect width="20" height="20" fill="white"/>
        </clipPath>
    </defs>
</svg>
