<svg width="80" height="80" viewBox="0 0 80 80" fill="none" xmlns="http://www.w3.org/2000/svg">
    <path d="M39.6583 80C61.5606 80 79.3159 62.0914 79.3159 40C79.3159 17.9086 61.5606 0 39.6583 0C17.7561 0 0.000793457 17.9086 0.000793457 40C0.000793457 62.0914 17.7561 80 39.6583 80Z" fill="#FBE136"/>
    <path d="M67.618 21.58C67.618 30.803 55.1002 24.5544 39.6585 24.5544C24.2168 24.5544 11.699 30.8025 11.699 21.58C11.699 12.357 24.2168 4.88037 39.6585 4.88037C55.1002 4.88086 67.618 12.357 67.618 21.58Z" fill="#FFE959"/>
    <path opacity="0.3" d="M39.6581 73.4025C18.3276 73.4025 0.937713 57.8163 0.043344 38.2793C0.019263 38.8506 0 39.4228 0 39.9994C0 62.0912 17.7554 79.9994 39.6576 79.9994C61.5597 79.9994 79.3151 62.0907 79.3151 39.9994C79.3151 39.4223 79.2959 38.8501 79.2718 38.2793C78.3789 57.8159 60.9885 73.4025 39.6581 73.4025Z" fill="#FBE136"/>
    <path d="M39.6581 52.021C43.8636 52.021 47.285 55.472 47.285 59.7143C47.285 60.5265 46.6324 61.1847 45.8271 61.1847C45.0219 61.1847 44.3693 60.5265 44.3693 59.7143C44.3693 57.094 42.2559 54.9624 39.6581 54.9624C37.0602 54.9624 34.9469 57.094 34.9469 59.7143C34.9469 60.5265 34.2943 61.1847 33.489 61.1847C32.6837 61.1847 32.0311 60.5265 32.0311 59.7143C32.0311 55.472 35.4526 52.021 39.6581 52.021Z" fill="#3F1507"/>
    <path d="M14.9885 53.7196C19.595 53.7196 23.3292 51.5728 23.3292 48.9245C23.3292 46.2762 19.595 44.1294 14.9885 44.1294C10.3821 44.1294 6.64783 46.2762 6.64783 48.9245C6.64783 51.5728 10.3821 53.7196 14.9885 53.7196Z" fill="#FFC9CA"/>
    <path d="M64.3281 53.7196C68.9346 53.7196 72.6688 51.5728 72.6688 48.9245C72.6688 46.2762 68.9346 44.1294 64.3281 44.1294C59.7217 44.1294 55.9874 46.2762 55.9874 48.9245C55.9874 51.5728 59.7217 53.7196 64.3281 53.7196Z" fill="#FFC9CA"/>
    <path d="M62.6438 48.9248C62.5634 48.9248 62.4824 48.9195 62.401 48.9083L48.5439 46.972C47.8711 46.8777 47.3128 46.3993 47.1125 45.7444C46.9121 45.0901 47.1053 44.3774 47.6086 43.9169L60.5458 32.0795C61.262 31.4241 62.3683 31.4791 63.017 32.2004C63.6662 32.9228 63.6128 34.0381 62.8971 34.693L52.7325 43.9932L62.8817 45.4117C63.8387 45.5457 64.5072 46.4367 64.3742 47.4024C64.2533 48.285 63.5035 48.9248 62.6438 48.9248Z" fill="#3F1507"/>
    <path d="M48.7843 46.9884C48.0556 46.9884 47.376 46.526 47.128 45.7924C46.8164 44.8699 47.3052 43.8668 48.2198 43.5525L62.6256 38.6024C63.5445 38.2871 64.5352 38.7817 64.8463 39.7037C65.158 40.6262 64.6691 41.6293 63.7545 41.9436L49.3488 46.8937C49.1614 46.9583 48.9712 46.9884 48.7843 46.9884Z" fill="#3F1507"/>
    <path d="M16.6727 48.9248C16.7532 48.9248 16.8341 48.9195 16.9155 48.9083L30.7726 46.972C31.4455 46.8777 32.0037 46.3993 32.204 45.7444C32.4044 45.0901 32.2112 44.3774 31.7079 43.9169L18.7707 32.0795C18.0545 31.4241 16.9482 31.4791 16.2995 32.2004C15.6502 32.9228 15.7037 34.0381 16.4199 34.693L26.5845 43.9937L16.4348 45.4122C15.4778 45.5462 14.8093 46.4371 14.9423 47.4029C15.0631 48.285 15.8135 48.9248 16.6727 48.9248Z" fill="#3F1507"/>
    <path d="M30.5323 46.9884C31.261 46.9884 31.9406 46.526 32.1886 45.7924C32.5002 44.8699 32.0114 43.8668 31.0968 43.5525L16.691 38.6024C15.7721 38.2871 14.7814 38.7817 14.4703 39.7037C14.1587 40.6262 14.6475 41.6293 15.5621 41.9436L29.9679 46.8937C30.1552 46.9583 30.3454 46.9884 30.5323 46.9884Z" fill="#3F1507"/>
    <path d="M80 26.2803C80 30.4915 76.6152 33.905 72.44 33.905C68.2648 33.905 64.8805 30.491 64.8805 26.2803C64.8805 22.069 72.44 11.9644 72.44 11.9644C72.44 11.9644 80 22.069 80 26.2803Z" fill="#29ABE2"/>
    <path d="M67.6171 27.3437C67.2496 27.3437 66.937 27.059 66.9062 26.6825C66.5614 22.4664 71.1117 17.0233 71.3063 16.7935C71.5616 16.4909 72.0124 16.4549 72.3119 16.7119C72.612 16.9698 72.6486 17.4241 72.3933 17.7267C72.3495 17.7787 68.0332 22.9439 68.3294 26.564C68.3622 26.9604 68.0698 27.3077 67.6763 27.3407C67.6566 27.3427 67.6368 27.3437 67.6171 27.3437Z" fill="white"/>
</svg>
