<svg width="20" height="20" viewBox="0 0 20 20" fill="none" xmlns="http://www.w3.org/2000/svg">
    <g clip-path="url(#clip0_2007_35647)">
        <path d="M11.7916 2.49889C11.7258 2.50414 11.6618 2.52234 11.6031 2.55245C11.5444 2.58256 11.4923 2.62398 11.4497 2.67433C11.4071 2.72468 11.3749 2.78296 11.3549 2.84581C11.3349 2.90866 11.3275 2.97485 11.3333 3.04055V7.45722C4.99992 8.08222 0.916585 12.4156 0.833252 16.7906C0.833252 17.0406 0.916585 17.2072 1.08325 17.2072C1.24992 17.2072 1.37492 17.0822 1.54159 16.7489C2.54159 14.4989 4.79159 13.2072 11.3333 12.9156V16.9572C11.3275 17.0229 11.3349 17.0891 11.3549 17.152C11.3749 17.2148 11.4071 17.2731 11.4497 17.3234C11.4923 17.3738 11.5444 17.4152 11.6031 17.4453C11.6618 17.4754 11.7258 17.4936 11.7916 17.4989C11.8569 17.5026 11.922 17.4891 11.9804 17.4599C12.0389 17.4307 12.0887 17.3866 12.1249 17.3322L18.9999 10.4572C19.1024 10.3426 19.1591 10.1943 19.1591 10.0406C19.1591 9.88682 19.1024 9.73847 18.9999 9.62389L12.1249 2.66555C12.0887 2.61113 12.0389 2.56712 11.9804 2.53788C11.922 2.50865 11.8569 2.4952 11.7916 2.49889Z" fill="#727885"/>
    </g>
    <defs>
        <clipPath id="clip0_2007_35647">
            <rect width="20" height="20" fill="white"/>
        </clipPath>
    </defs>
</svg>
