<svg width="20" height="20" viewBox="0 0 20 20" fill="none" xmlns="http://www.w3.org/2000/svg">
    <path d="M7.5 1.875H3.75C3.25272 1.875 2.77581 2.07254 2.42417 2.42417C2.07254 2.77581 1.875 3.25272 1.875 3.75V7.5C1.875 7.66576 1.94085 7.82473 2.05806 7.94194C2.17527 8.05915 2.33424 8.125 2.5 8.125C2.66576 8.125 2.82473 8.05915 2.94194 7.94194C3.05915 7.82473 3.125 7.66576 3.125 7.5V3.75C3.125 3.58424 3.19085 3.42527 3.30806 3.30806C3.42527 3.19085 3.58424 3.125 3.75 3.125H7.5C7.66576 3.125 7.82473 3.05915 7.94194 2.94194C8.05915 2.82473 8.125 2.66576 8.125 2.5C8.125 2.33424 8.05915 2.17527 7.94194 2.05806C7.82473 1.94085 7.66576 1.875 7.5 1.875Z" fill="white"/>
    <path d="M16.25 1.875H12.5C12.3342 1.875 12.1753 1.94085 12.0581 2.05806C11.9408 2.17527 11.875 2.33424 11.875 2.5C11.875 2.66576 11.9408 2.82473 12.0581 2.94194C12.1753 3.05915 12.3342 3.125 12.5 3.125H16.25C16.4158 3.125 16.5747 3.19085 16.6919 3.30806C16.8092 3.42527 16.875 3.58424 16.875 3.75V7.5C16.875 7.66576 16.9408 7.82473 17.0581 7.94194C17.1753 8.05915 17.3342 8.125 17.5 8.125C17.6658 8.125 17.8247 8.05915 17.9419 7.94194C18.0592 7.82473 18.125 7.66576 18.125 7.5V3.75C18.125 3.25272 17.9275 2.77581 17.5758 2.42417C17.2242 2.07254 16.7473 1.875 16.25 1.875Z" fill="white"/>
    <path d="M17.5 11.875C17.3342 11.875 17.1753 11.9408 17.0581 12.0581C16.9408 12.1753 16.875 12.3342 16.875 12.5V16.25C16.875 16.4158 16.8092 16.5747 16.6919 16.6919C16.5747 16.8092 16.4158 16.875 16.25 16.875H12.5C12.3342 16.875 12.1753 16.9408 12.0581 17.0581C11.9408 17.1753 11.875 17.3342 11.875 17.5C11.875 17.6658 11.9408 17.8247 12.0581 17.9419C12.1753 18.0592 12.3342 18.125 12.5 18.125H16.25C16.7473 18.125 17.2242 17.9275 17.5758 17.5758C17.9275 17.2242 18.125 16.7473 18.125 16.25V12.5C18.125 12.3342 18.0592 12.1753 17.9419 12.0581C17.8247 11.9408 17.6658 11.875 17.5 11.875Z" fill="white"/>
    <path d="M7.5 16.875H3.75C3.58424 16.875 3.42527 16.8092 3.30806 16.6919C3.19085 16.5747 3.125 16.4158 3.125 16.25V12.5C3.125 12.3342 3.05915 12.1753 2.94194 12.0581C2.82473 11.9408 2.66576 11.875 2.5 11.875C2.33424 11.875 2.17527 11.9408 2.05806 12.0581C1.94085 12.1753 1.875 12.3342 1.875 12.5V16.25C1.875 16.7473 2.07254 17.2242 2.42417 17.5758C2.77581 17.9275 3.25272 18.125 3.75 18.125H7.5C7.66576 18.125 7.82473 18.0592 7.94194 17.9419C8.05915 17.8247 8.125 17.6658 8.125 17.5C8.125 17.3342 8.05915 17.1753 7.94194 17.0581C7.82473 16.9408 7.66576 16.875 7.5 16.875Z" fill="white"/>
</svg>
