<svg width="20" height="20" viewBox="0 0 20 20" fill="none" xmlns="http://www.w3.org/2000/svg">
    <path d="M9.99984 1.6665C5.40817 1.6665 1.6665 5.40817 1.6665 9.99984C1.6665 14.5915 5.40817 18.3332 9.99984 18.3332C14.5915 18.3332 18.3332 14.5915 18.3332 9.99984C18.3332 5.40817 14.5915 1.6665 9.99984 1.6665ZM13.9832 8.08317L9.25817 12.8082C9.1415 12.9248 8.98317 12.9915 8.8165 12.9915C8.64984 12.9915 8.4915 12.9248 8.37484 12.8082L6.0165 10.4498C5.77484 10.2082 5.77484 9.80817 6.0165 9.5665C6.25817 9.32484 6.65817 9.32484 6.89984 9.5665L8.8165 11.4832L13.0998 7.19984C13.3415 6.95817 13.7415 6.95817 13.9832 7.19984C14.2248 7.4415 14.2248 7.83317 13.9832 8.08317Z" fill="#28E60F"/>
</svg>
