<svg width="65" height="66" viewBox="0 0 65 66" fill="none" xmlns="http://www.w3.org/2000/svg">
    <g clip-path="url(#clip0_59033_6833)">
        <path fill-rule="evenodd" clip-rule="evenodd" d="M39.1939 12.6125C38.9051 11.3386 39.8245 10.0547 41.1308 10.0547H61.0528C62.1463 10.0547 63.1278 10.5059 63.8372 11.2256C64.5519 11.9453 65 12.9443 65 14.0293V62.0254C65 63.1265 64.5519 64.1147 63.8372 64.8291C63.1224 65.5488 62.1303 66 61.0528 66H13.0576C11.9641 66 10.9827 65.5488 10.2733 64.8291C9.55851 64.1094 9.11045 63.1104 9.11045 62.0254V41.1496C9.11045 39.8281 10.4457 38.9204 11.7218 39.2642C12.5831 39.4962 13.2283 40.2566 13.2283 41.1486V50.5044H13.2443C20.1198 43.8818 24.675 40.6108 31.5132 35.0195C31.5399 35.0464 31.5666 35.0732 31.5932 35.1001C31.6092 35.1162 31.6092 35.1323 31.6252 35.1323L45.931 52.1748L48.1179 38.6182C48.2673 37.748 49.078 37.1519 49.9421 37.3022C50.2729 37.3506 50.5716 37.5171 50.8063 37.7373L60.8448 48.356V14.9907C60.8448 14.7759 60.7595 14.5879 60.6101 14.459C60.4768 14.3247 60.2794 14.2227 60.0821 14.2227H41.1237C40.189 14.2227 39.4006 13.5241 39.1939 12.6125ZM17.4902 0C27.15 0 34.9803 7.88477 34.9803 17.6118C34.9803 27.3389 27.15 35.2236 17.4902 35.2236C7.8303 35.2236 0 27.3389 0 17.6118C0 7.88477 7.8303 0 17.4902 0ZM11.705 14.4935C10.4236 15.7469 11.311 17.9233 13.1035 17.9233H14.0871V24.3882C14.0871 25.4928 14.9825 26.3882 16.0871 26.3882H18.7279C19.8325 26.3882 20.7279 25.4928 20.7279 24.3882V17.9233H21.8842C23.6764 17.9233 24.5639 15.7475 23.283 14.4939L18.8939 10.1987C18.1167 9.43801 16.8741 9.43784 16.0966 10.1983L11.705 14.4935ZM50.2835 19.1533C51.857 19.1533 53.3026 19.8032 54.3267 20.8398C55.3721 21.8926 56.0016 23.3267 56.0016 24.9165C56.0016 26.501 55.3561 27.9565 54.3267 28.9878C53.2812 30.0405 51.857 30.6743 50.2835 30.6743C48.71 30.6743 47.2645 30.0244 46.235 28.9878C45.1896 27.9351 44.5602 26.501 44.5602 24.9165C44.5602 23.332 45.2056 21.8818 46.235 20.8398C47.2858 19.7871 48.71 19.1533 50.2835 19.1533Z" fill="#400FA7"/>
    </g>
    <defs>
        <clipPath id="clip0_59033_6833">
            <rect width="65" height="66" fill="white"/>
        </clipPath>
    </defs>
</svg>
