<svg width="140" height="47" viewBox="0 0 140 47" fill="none" xmlns="http://www.w3.org/2000/svg">
    <path d="M52.0179 38.0237L52.0797 38.5199L52.0179 38.0237ZM54.7612 32.4089L54.3175 32.1785V32.1785L54.7612 32.4089ZM64.0485 46.0786L63.9845 46.5745L64.0485 46.0786ZM96.5485 33.7458L96.5914 34.244L96.5485 33.7458ZM133.807 5.27249L139.346 5.15737L136.751 -0.000145435L133.357 4.37918L133.807 5.27249ZM0.0485229 38.0237L2.24039e-05 38.5213C0.337506 38.5542 0.672919 38.5865 1.00629 38.6183L1.05368 38.1205L1.10107 37.6228C0.768447 37.5911 0.433775 37.5589 0.0970235 37.5261L0.0485229 38.0237ZM3.04741 38.3057L3.00233 38.8037C3.67632 38.8647 4.34178 38.9233 4.99899 38.9796L5.04162 38.4814L5.08425 37.9832C4.42871 37.9271 3.76488 37.8687 3.0925 37.8078L3.04741 38.3057ZM7.03675 38.6469L6.99674 39.1453C7.67192 39.1995 8.33821 39.2512 8.99591 39.3003L9.03314 38.8017L9.07038 38.3031C8.41457 38.2541 7.75013 38.2026 7.07677 38.1485L7.03675 38.6469ZM11.031 38.9449L10.9967 39.4438C11.6733 39.4902 12.3407 39.534 12.9991 39.575L13.0302 39.076L13.0613 38.5769C12.405 38.536 11.7398 38.4924 11.0652 38.4461L11.031 38.9449ZM15.0309 39.1939L15.0031 39.6932C15.681 39.7308 16.3493 39.7655 17.0085 39.7974L17.0326 39.298L17.0567 38.7985C16.4 38.7668 15.7341 38.7322 15.0586 38.6947L15.0309 39.1939ZM19.035 39.3871L19.0147 39.8867C19.6932 39.9143 20.362 39.9388 21.0214 39.9602L21.0377 39.4605L21.0539 38.9607C20.3972 38.9394 19.7312 38.915 19.0553 38.8875L19.035 39.3871ZM23.04 39.517L23.028 40.0169C23.7063 40.0331 24.3747 40.046 25.0339 40.0558L25.0413 39.5558L25.0487 39.0559C24.3926 39.0462 23.7272 39.0333 23.0519 39.0172L23.04 39.517ZM27.0418 39.5759L27.0392 40.0759C27.7192 40.0794 28.3895 40.0795 29.0508 40.0763L29.0483 39.5763L29.0459 39.0763C28.388 39.0795 27.7211 39.0794 27.0444 39.0759L27.0418 39.5759ZM31.052 39.556L31.0597 40.056C31.7372 40.0455 32.4055 40.0316 33.0654 40.0142L33.0523 39.5144L33.0391 39.0146C32.3828 39.0318 31.7182 39.0457 31.0443 39.0561L31.052 39.556ZM35.0564 39.4505L35.0751 39.9502C35.7521 39.9248 36.4208 39.8958 37.0821 39.8635L37.0577 39.3641L37.0332 38.8647C36.3757 38.8968 35.7108 38.9256 35.0376 38.9509L35.0564 39.4505ZM39.057 39.2548L39.0871 39.7539C39.7623 39.7131 40.4304 39.6688 41.0927 39.6213L41.0568 39.1226L41.021 38.6238C40.3625 38.6711 39.6981 38.7152 39.0268 38.7557L39.057 39.2548ZM43.053 38.968L43.0943 39.4663C43.7663 39.4105 44.4331 39.3515 45.0959 39.2894L45.0493 38.7916L45.0026 38.2938C44.3432 38.3556 43.6799 38.4143 43.0116 38.4697L43.053 38.968ZM47.0423 38.5948L47.0938 39.0921C47.7617 39.0229 48.4268 38.9506 49.0902 38.8757L49.0341 38.3789L48.978 37.882C48.3174 37.9566 47.6554 38.0285 46.9907 38.0975L47.0423 38.5948ZM51.0236 38.1459L51.0837 38.6423C51.4157 38.6021 51.7477 38.5613 52.0797 38.5199L52.0179 38.0237L51.956 37.5275C51.6251 37.5688 51.2943 37.6095 50.9635 37.6496L51.0236 38.1459ZM52.0179 38.0237L52.0797 38.5199C52.434 38.4757 52.7766 38.4282 53.108 38.3776L53.0326 37.8834L52.9572 37.3891C52.6352 37.4382 52.3015 37.4844 51.956 37.5275L52.0179 38.0237ZM54.9998 37.5189L55.1082 38.007C55.843 37.8437 56.5072 37.6623 57.1058 37.4658L56.9499 36.9908L56.7939 36.5157C56.23 36.7008 55.5978 36.8738 54.8913 37.0308L54.9998 37.5189ZM58.8069 36.2281L59.0364 36.6723C59.7795 36.2882 60.3639 35.8678 60.8036 35.4219L60.4476 35.0708L60.0916 34.7198C59.7411 35.0752 59.2482 35.4371 58.5773 35.7839L58.8069 36.2281ZM61.3363 33.3146L61.8349 33.3527C61.8994 32.5073 61.5606 31.7374 61.0217 31.1447L60.6518 31.481L60.2818 31.8174C60.6742 32.249 60.8774 32.7579 60.8378 33.2766L61.3363 33.3146ZM58.9494 30.4501L59.085 29.9688C58.37 29.7674 57.5801 29.7449 56.8168 29.977L56.9623 30.4554L57.1078 30.9338C57.6688 30.7631 58.2625 30.776 58.8138 30.9313L58.9494 30.4501ZM55.3185 31.5655L54.9356 31.2439C54.7078 31.5152 54.5004 31.8263 54.3175 32.1785L54.7612 32.4089L55.205 32.6393C55.3563 32.3479 55.5236 32.0987 55.7014 31.887L55.3185 31.5655ZM54.7612 32.4089L54.3175 32.1785C54.1858 32.432 54.0164 32.7555 53.8356 33.1287L54.2856 33.3467L54.7356 33.5646C54.909 33.2065 55.0715 32.8964 55.205 32.6393L54.7612 32.4089ZM53.4839 35.2936L53.0091 35.1367C52.7893 35.8021 52.6075 36.5298 52.5209 37.2882L53.0177 37.3449L53.5145 37.4016C53.5915 36.7266 53.7549 36.0673 53.9586 35.4504L53.4839 35.2936ZM53.0775 39.4427L52.5863 39.5358C52.7223 40.2532 52.9823 40.969 53.4068 41.6571L53.8324 41.3946L54.2579 41.132C53.9018 40.5549 53.6836 39.9553 53.5688 39.3496L53.0775 39.4427ZM55.2166 42.9722L54.8948 43.3549C55.4118 43.7895 56.0225 44.1956 56.7381 44.5671L56.9684 44.1233L57.1988 43.6795C56.5412 43.3382 55.9931 42.9718 55.5383 42.5895L55.2166 42.9722ZM58.9073 44.9445L58.7443 45.4172C59.3752 45.6349 60.0635 45.8332 60.8133 46.0098L60.928 45.5231L61.0426 45.0365C60.3223 44.8668 59.6666 44.6775 59.0704 44.4719L58.9073 44.9445ZM62.9959 45.9272L62.9171 46.4209C63.2622 46.476 63.6179 46.5272 63.9845 46.5745L64.0485 46.0786L64.1125 45.5827C63.7554 45.5366 63.4095 45.4868 63.0746 45.4334L62.9959 45.9272ZM64.0485 46.0786L63.9845 46.5745C64.3286 46.6189 64.6664 46.6567 64.9982 46.6881L65.0453 46.1903L65.0924 45.6925C64.7722 45.6622 64.4456 45.6257 64.1125 45.5827L64.0485 46.0786ZM67.0182 46.3034L67.0091 46.8034C67.7158 46.8162 68.3931 46.7977 69.044 46.7508L69.0081 46.2521L68.9722 45.7534C68.3521 45.7981 67.7048 45.8158 67.0272 45.8035L67.0182 46.3034ZM70.9739 46.0111L71.0604 46.5036C71.7516 46.3821 72.411 46.2268 73.0432 46.0423L72.9031 45.5623L72.763 45.0823C72.1656 45.2567 71.5421 45.4036 70.8874 45.5186L70.9739 46.0111ZM74.7749 44.9008L74.9671 45.3624C75.6048 45.097 76.2144 44.8026 76.8022 44.4859L76.565 44.0457L76.3279 43.6055C75.7665 43.908 75.1869 44.1878 74.5828 44.4392L74.7749 44.9008ZM78.2707 43.0325L78.5422 43.4524C79.1083 43.0865 79.6584 42.7039 80.1988 42.3122L79.9053 41.9074L79.6119 41.5025C79.0818 41.8867 78.5468 42.2587 77.9993 42.6126L78.2707 43.0325ZM81.4948 40.7189L81.7982 41.1163C82.3251 40.7141 82.8445 40.3133 83.3737 39.9124L83.0718 39.5138L82.7699 39.1153C82.2394 39.5171 81.7121 39.924 81.1914 40.3215L81.4948 40.7189ZM84.6694 38.3365L84.9589 38.7442C85.4874 38.3688 86.0265 38.0031 86.5827 37.6524L86.316 37.2295L86.0493 36.8065C85.4745 37.169 84.92 37.5453 84.3799 37.9289L84.6694 38.3365ZM88.0308 36.2325L88.2652 36.6741C88.8263 36.3763 89.4082 36.0966 90.0161 35.8397L89.8214 35.3791L89.6268 34.9186C88.9898 35.1878 88.3814 35.4803 87.7964 35.7908L88.0308 36.2325ZM91.685 34.6925L91.8355 35.1693C92.4319 34.981 93.0541 34.8145 93.7059 34.6735L93.6002 34.1848L93.4945 33.6961C92.8121 33.8437 92.16 34.0182 91.5344 34.2157L91.685 34.6925ZM95.5549 33.8513L95.6179 34.3474C95.9355 34.307 96.2599 34.2725 96.5914 34.244L96.5485 33.7458L96.5057 33.2476C96.1609 33.2773 95.8231 33.3133 95.492 33.3553L95.5549 33.8513ZM96.5485 33.7458L96.5914 34.244C96.9437 34.2137 97.2927 34.1821 97.6384 34.1494L97.5912 33.6516L97.544 33.1538C97.2013 33.1863 96.8552 33.2176 96.5057 33.2476L96.5485 33.7458ZM99.6165 33.4415L99.6726 33.9384C100.362 33.8605 101.038 33.7775 101.699 33.6896L101.634 33.1939L101.568 32.6983C100.913 32.7853 100.244 32.8675 99.5603 32.9447L99.6165 33.4415ZM103.646 32.9051L103.722 33.3992C104.413 33.2925 105.088 33.1801 105.747 33.0623L105.659 32.5701L105.571 32.0779C104.919 32.1943 104.253 32.3054 103.57 32.411L103.646 32.9051ZM107.639 32.1905L107.739 32.6803C108.431 32.5383 109.105 32.39 109.761 32.2357L109.646 31.749L109.532 31.2623C108.885 31.4144 108.221 31.5606 107.538 31.7007L107.639 32.1905ZM111.603 31.2566L111.733 31.7395C112.412 31.5572 113.07 31.368 113.708 31.1723L113.561 30.6943L113.415 30.2163C112.788 30.4084 112.141 30.5944 111.474 30.7737L111.603 31.2566ZM115.504 30.057L115.67 30.5288C116.333 30.2963 116.973 30.0563 117.589 29.8093L117.403 29.3451L117.217 28.881C116.615 29.1224 115.989 29.3573 115.339 29.5851L115.504 30.057ZM119.26 28.5485L119.469 29.0029C120.114 28.7069 120.731 28.4026 121.321 28.0908L121.087 27.6487L120.853 27.2067C120.28 27.5095 119.68 27.8056 119.052 28.0941L119.26 28.5485ZM122.86 26.6403L123.121 27.0668C123.729 26.6946 124.304 26.3139 124.849 25.9257L124.558 25.5186L124.268 25.1115C123.743 25.4858 123.188 25.8536 122.599 26.2138L122.86 26.6403ZM126.166 24.276L126.488 24.6592C127.034 24.2011 127.544 23.7351 128.019 23.263L127.666 22.9083L127.314 22.5536C126.859 23.0057 126.371 23.4526 125.845 23.8927L126.166 24.276ZM129.043 21.412L129.426 21.7334C129.887 21.1846 130.307 20.6307 130.691 20.0745L130.28 19.7903L129.868 19.5061C129.501 20.0373 129.1 20.5662 128.66 21.0906L129.043 21.412ZM131.357 18.0648L131.792 18.3098C132.14 17.6912 132.449 17.0735 132.727 16.4606L132.271 16.2545L131.816 16.0483C131.55 16.6367 131.253 17.2283 130.921 17.8199L131.357 18.0648ZM133.038 14.3637L133.508 14.5339C133.749 13.8683 133.959 13.2135 134.146 12.5749L133.666 12.4342L133.186 12.2936C133.004 12.9158 132.801 13.5505 132.568 14.1935L133.038 14.3637ZM134.196 10.4637L134.681 10.5845C134.853 9.89298 135.009 9.22505 135.159 8.60006L134.672 8.48353L134.186 8.367C134.035 8.99983 133.881 9.65698 133.711 10.3429L134.196 10.4637ZM135.182 6.51269L135.662 6.65275C135.865 5.9553 136.082 5.34729 136.338 4.83353L135.891 4.61047L135.443 4.38741C135.15 4.97632 134.913 5.64757 134.702 6.37263L135.182 6.51269Z" fill="#1C274C"/>
    <path d="M52.0179 38.0237L52.0797 38.5199L52.0179 38.0237ZM54.7612 32.4089L54.3175 32.1785V32.1785L54.7612 32.4089ZM64.0485 46.0786L63.9845 46.5745L64.0485 46.0786ZM96.5485 33.7458L96.5914 34.244L96.5485 33.7458ZM133.807 5.27249L139.346 5.15737L136.751 -0.000145435L133.357 4.37918L133.807 5.27249ZM0.0485229 38.0237L2.24039e-05 38.5213C0.337506 38.5542 0.672919 38.5865 1.00629 38.6183L1.05368 38.1205L1.10107 37.6228C0.768447 37.5911 0.433775 37.5589 0.0970235 37.5261L0.0485229 38.0237ZM3.04741 38.3057L3.00233 38.8037C3.67632 38.8647 4.34178 38.9233 4.99899 38.9796L5.04162 38.4814L5.08425 37.9832C4.42871 37.9271 3.76488 37.8687 3.0925 37.8078L3.04741 38.3057ZM7.03675 38.6469L6.99674 39.1453C7.67192 39.1995 8.33821 39.2512 8.99591 39.3003L9.03314 38.8017L9.07038 38.3031C8.41457 38.2541 7.75013 38.2026 7.07677 38.1485L7.03675 38.6469ZM11.031 38.9449L10.9967 39.4438C11.6733 39.4902 12.3407 39.534 12.9991 39.575L13.0302 39.076L13.0613 38.5769C12.405 38.536 11.7398 38.4924 11.0652 38.4461L11.031 38.9449ZM15.0309 39.1939L15.0031 39.6932C15.681 39.7308 16.3493 39.7655 17.0085 39.7974L17.0326 39.298L17.0567 38.7985C16.4 38.7668 15.7341 38.7322 15.0586 38.6947L15.0309 39.1939ZM19.035 39.3871L19.0147 39.8867C19.6932 39.9143 20.362 39.9388 21.0214 39.9602L21.0377 39.4605L21.0539 38.9607C20.3972 38.9394 19.7312 38.915 19.0553 38.8875L19.035 39.3871ZM23.04 39.517L23.028 40.0169C23.7063 40.0331 24.3747 40.046 25.0339 40.0558L25.0413 39.5558L25.0487 39.0559C24.3926 39.0462 23.7272 39.0333 23.0519 39.0172L23.04 39.517ZM27.0418 39.5759L27.0392 40.0759C27.7192 40.0794 28.3895 40.0795 29.0508 40.0763L29.0483 39.5763L29.0459 39.0763C28.388 39.0795 27.7211 39.0794 27.0444 39.0759L27.0418 39.5759ZM31.052 39.556L31.0597 40.056C31.7372 40.0455 32.4055 40.0316 33.0654 40.0142L33.0523 39.5144L33.0391 39.0146C32.3828 39.0318 31.7182 39.0457 31.0443 39.0561L31.052 39.556ZM35.0564 39.4505L35.0751 39.9502C35.7521 39.9248 36.4208 39.8958 37.0821 39.8635L37.0577 39.3641L37.0332 38.8647C36.3757 38.8968 35.7108 38.9256 35.0376 38.9509L35.0564 39.4505ZM39.057 39.2548L39.0871 39.7539C39.7623 39.7131 40.4304 39.6688 41.0927 39.6213L41.0568 39.1226L41.021 38.6238C40.3625 38.6711 39.6981 38.7152 39.0268 38.7557L39.057 39.2548ZM43.053 38.968L43.0943 39.4663C43.7663 39.4105 44.4331 39.3515 45.0959 39.2894L45.0493 38.7916L45.0026 38.2938C44.3432 38.3556 43.6799 38.4143 43.0116 38.4697L43.053 38.968ZM47.0423 38.5948L47.0938 39.0921C47.7617 39.0229 48.4268 38.9506 49.0902 38.8757L49.0341 38.3789L48.978 37.882C48.3174 37.9566 47.6554 38.0285 46.9907 38.0975L47.0423 38.5948ZM51.0236 38.1459L51.0837 38.6423C51.4157 38.6021 51.7477 38.5613 52.0797 38.5199L52.0179 38.0237L51.956 37.5275C51.6251 37.5688 51.2943 37.6095 50.9635 37.6496L51.0236 38.1459ZM52.0179 38.0237L52.0797 38.5199C52.434 38.4757 52.7766 38.4282 53.108 38.3776L53.0326 37.8834L52.9572 37.3891C52.6352 37.4382 52.3015 37.4844 51.956 37.5275L52.0179 38.0237ZM54.9998 37.5189L55.1082 38.007C55.843 37.8437 56.5072 37.6623 57.1058 37.4658L56.9499 36.9908L56.7939 36.5157C56.23 36.7008 55.5978 36.8738 54.8913 37.0308L54.9998 37.5189ZM58.8069 36.2281L59.0364 36.6723C59.7795 36.2882 60.3639 35.8678 60.8036 35.4219L60.4476 35.0708L60.0916 34.7198C59.7411 35.0752 59.2482 35.4371 58.5773 35.7839L58.8069 36.2281ZM61.3363 33.3146L61.8349 33.3527C61.8994 32.5073 61.5606 31.7374 61.0217 31.1447L60.6518 31.481L60.2818 31.8174C60.6742 32.249 60.8774 32.7579 60.8378 33.2766L61.3363 33.3146ZM58.9494 30.4501L59.085 29.9688C58.37 29.7674 57.5801 29.7449 56.8168 29.977L56.9623 30.4554L57.1078 30.9338C57.6688 30.7631 58.2625 30.776 58.8138 30.9313L58.9494 30.4501ZM55.3185 31.5655L54.9356 31.2439C54.7078 31.5152 54.5004 31.8263 54.3175 32.1785L54.7612 32.4089L55.205 32.6393C55.3563 32.3479 55.5236 32.0987 55.7014 31.887L55.3185 31.5655ZM54.7612 32.4089L54.3175 32.1785C54.1858 32.432 54.0164 32.7555 53.8356 33.1287L54.2856 33.3467L54.7356 33.5646C54.909 33.2065 55.0715 32.8964 55.205 32.6393L54.7612 32.4089ZM53.4839 35.2936L53.0091 35.1367C52.7893 35.8021 52.6075 36.5298 52.5209 37.2882L53.0177 37.3449L53.5145 37.4016C53.5915 36.7266 53.7549 36.0673 53.9586 35.4504L53.4839 35.2936ZM53.0775 39.4427L52.5863 39.5358C52.7223 40.2532 52.9823 40.969 53.4068 41.6571L53.8324 41.3946L54.2579 41.132C53.9018 40.5549 53.6836 39.9553 53.5688 39.3496L53.0775 39.4427ZM55.2166 42.9722L54.8948 43.3549C55.4118 43.7895 56.0225 44.1956 56.7381 44.5671L56.9684 44.1233L57.1988 43.6795C56.5412 43.3382 55.9931 42.9718 55.5383 42.5895L55.2166 42.9722ZM58.9073 44.9445L58.7443 45.4172C59.3752 45.6349 60.0635 45.8332 60.8133 46.0098L60.928 45.5231L61.0426 45.0365C60.3223 44.8668 59.6666 44.6775 59.0704 44.4719L58.9073 44.9445ZM62.9959 45.9272L62.9171 46.4209C63.2622 46.476 63.6179 46.5272 63.9845 46.5745L64.0485 46.0786L64.1125 45.5827C63.7554 45.5366 63.4095 45.4868 63.0746 45.4334L62.9959 45.9272ZM64.0485 46.0786L63.9845 46.5745C64.3286 46.6189 64.6664 46.6567 64.9982 46.6881L65.0453 46.1903L65.0924 45.6925C64.7722 45.6622 64.4456 45.6257 64.1125 45.5827L64.0485 46.0786ZM67.0182 46.3034L67.0091 46.8034C67.7158 46.8162 68.3931 46.7977 69.044 46.7508L69.0081 46.2521L68.9722 45.7534C68.3521 45.7981 67.7048 45.8158 67.0272 45.8035L67.0182 46.3034ZM70.9739 46.0111L71.0604 46.5036C71.7516 46.3821 72.411 46.2268 73.0432 46.0423L72.9031 45.5623L72.763 45.0823C72.1656 45.2567 71.5421 45.4036 70.8874 45.5186L70.9739 46.0111ZM74.7749 44.9008L74.9671 45.3624C75.6048 45.097 76.2144 44.8026 76.8022 44.4859L76.565 44.0457L76.3279 43.6055C75.7665 43.908 75.1869 44.1878 74.5828 44.4392L74.7749 44.9008ZM78.2707 43.0325L78.5422 43.4524C79.1083 43.0865 79.6584 42.7039 80.1988 42.3122L79.9053 41.9074L79.6119 41.5025C79.0818 41.8867 78.5468 42.2587 77.9993 42.6126L78.2707 43.0325ZM81.4948 40.7189L81.7982 41.1163C82.3251 40.7141 82.8445 40.3133 83.3737 39.9124L83.0718 39.5138L82.7699 39.1153C82.2394 39.5171 81.7121 39.924 81.1914 40.3215L81.4948 40.7189ZM84.6694 38.3365L84.9589 38.7442C85.4874 38.3688 86.0265 38.0031 86.5827 37.6524L86.316 37.2295L86.0493 36.8065C85.4745 37.169 84.92 37.5453 84.3799 37.9289L84.6694 38.3365ZM88.0308 36.2325L88.2652 36.6741C88.8263 36.3763 89.4082 36.0966 90.0161 35.8397L89.8214 35.3791L89.6268 34.9186C88.9898 35.1878 88.3814 35.4803 87.7964 35.7908L88.0308 36.2325ZM91.685 34.6925L91.8355 35.1693C92.4319 34.981 93.0541 34.8145 93.7059 34.6735L93.6002 34.1848L93.4945 33.6961C92.8121 33.8437 92.16 34.0182 91.5344 34.2157L91.685 34.6925ZM95.5549 33.8513L95.6179 34.3474C95.9355 34.307 96.2599 34.2725 96.5914 34.244L96.5485 33.7458L96.5057 33.2476C96.1609 33.2773 95.8231 33.3133 95.492 33.3553L95.5549 33.8513ZM96.5485 33.7458L96.5914 34.244C96.9437 34.2137 97.2927 34.1821 97.6384 34.1494L97.5912 33.6516L97.544 33.1538C97.2013 33.1863 96.8552 33.2176 96.5057 33.2476L96.5485 33.7458ZM99.6165 33.4415L99.6726 33.9384C100.362 33.8605 101.038 33.7775 101.699 33.6896L101.634 33.1939L101.568 32.6983C100.913 32.7853 100.244 32.8675 99.5603 32.9447L99.6165 33.4415ZM103.646 32.9051L103.722 33.3992C104.413 33.2925 105.088 33.1801 105.747 33.0623L105.659 32.5701L105.571 32.0779C104.919 32.1943 104.253 32.3054 103.57 32.411L103.646 32.9051ZM107.639 32.1905L107.739 32.6803C108.431 32.5383 109.105 32.39 109.761 32.2357L109.646 31.749L109.532 31.2623C108.885 31.4144 108.221 31.5606 107.538 31.7007L107.639 32.1905ZM111.603 31.2566L111.733 31.7395C112.412 31.5572 113.07 31.368 113.708 31.1723L113.561 30.6943L113.415 30.2163C112.788 30.4084 112.141 30.5944 111.474 30.7737L111.603 31.2566ZM115.504 30.057L115.67 30.5288C116.333 30.2963 116.973 30.0563 117.589 29.8093L117.403 29.3451L117.217 28.881C116.615 29.1224 115.989 29.3573 115.339 29.5851L115.504 30.057ZM119.26 28.5485L119.469 29.0029C120.114 28.7069 120.731 28.4026 121.321 28.0908L121.087 27.6487L120.853 27.2067C120.28 27.5095 119.68 27.8056 119.052 28.0941L119.26 28.5485ZM122.86 26.6403L123.121 27.0668C123.729 26.6946 124.304 26.3139 124.849 25.9257L124.558 25.5186L124.268 25.1115C123.743 25.4858 123.188 25.8536 122.599 26.2138L122.86 26.6403ZM126.166 24.276L126.488 24.6592C127.034 24.2011 127.544 23.7351 128.019 23.263L127.666 22.9083L127.314 22.5536C126.859 23.0057 126.371 23.4526 125.845 23.8927L126.166 24.276ZM129.043 21.412L129.426 21.7334C129.887 21.1846 130.307 20.6307 130.691 20.0745L130.28 19.7903L129.868 19.5061C129.501 20.0373 129.1 20.5662 128.66 21.0906L129.043 21.412ZM131.357 18.0648L131.792 18.3098C132.14 17.6912 132.449 17.0735 132.727 16.4606L132.271 16.2545L131.816 16.0483C131.55 16.6367 131.253 17.2283 130.921 17.8199L131.357 18.0648ZM133.038 14.3637L133.508 14.5339C133.749 13.8683 133.959 13.2135 134.146 12.5749L133.666 12.4342L133.186 12.2936C133.004 12.9158 132.801 13.5505 132.568 14.1935L133.038 14.3637ZM134.196 10.4637L134.681 10.5845C134.853 9.89298 135.009 9.22505 135.159 8.60006L134.672 8.48353L134.186 8.367C134.035 8.99983 133.881 9.65698 133.711 10.3429L134.196 10.4637ZM135.182 6.51269L135.662 6.65275C135.865 5.9553 136.082 5.34729 136.338 4.83353L135.891 4.61047L135.443 4.38741C135.15 4.97632 134.913 5.64757 134.702 6.37263L135.182 6.51269Z" fill="url(#paint0_linear_59054_4500)"/>
    <defs>
        <linearGradient id="paint0_linear_59054_4500" x1="69.0485" y1="2.57861" x2="69.0485" y2="46.3073" gradientUnits="userSpaceOnUse">
            <stop stop-color="#6C1BF7"/>
            <stop offset="1" stop-color="#F58AED"/>
        </linearGradient>
    </defs>
</svg>
