<svg width="56" height="60" viewBox="0 0 56 60" fill="none" xmlns="http://www.w3.org/2000/svg">
    <path fill-rule="evenodd" clip-rule="evenodd" d="M3.15738 25.8238L16.3021 21.8051C12.881 19.0869 9.45973 16.3685 6.03855 13.6502L0 15.4964L3.15738 25.8238ZM3.15738 25.8238H55.9111V56.0536C55.9111 58.2241 54.1351 60 51.9646 60H7.10391C4.93336 60 3.15738 58.224 3.15738 56.0536V25.8238ZM35.6891 42.9118L29.5342 39.3584L23.3794 35.8049V42.9118V50.0189L29.5342 46.4654L35.6891 42.9118ZM20.9363 20.3882C17.5151 17.6699 14.0938 14.9516 10.6727 12.2333L20.4552 9.24258C23.8762 11.9609 27.2977 14.679 30.7186 17.3974L20.9363 20.3882ZM35.3529 15.9806L45.1354 12.9899L44.8392 12.7546L34.8719 4.83492L25.0895 7.82578C28.5105 10.5441 31.9317 13.2623 35.3529 15.9806ZM49.7695 11.573C46.3484 8.85469 42.9272 6.13641 39.5061 3.41812L50.6864 0L53.8438 10.3274L49.7695 11.573Z" fill="#FF00AE"/>
</svg>
