<svg width="60" height="60" viewBox="0 0 60 60" fill="none" xmlns="http://www.w3.org/2000/svg">
    <path fill-rule="evenodd" clip-rule="evenodd" d="M36.2194 27.4329C32.9269 34.016 27.9676 43.9329 24.917 50.036C24.0451 51.7798 24.1389 53.8516 25.1626 55.5091C26.1882 57.1685 27.9976 58.1773 29.9476 58.1773H52.5526C54.5026 58.1773 56.3119 57.1685 57.3376 55.5091C58.3613 53.8516 58.4551 51.7798 57.5832 50.036L46.2807 27.4329C45.3282 25.526 43.3801 24.3223 41.2501 24.3223C39.1201 24.3223 37.1719 25.526 36.2194 27.4329ZM41.2501 48.7498C42.2851 48.7498 43.1251 49.5898 43.1251 50.6248C43.1251 51.6598 42.2851 52.4998 41.2501 52.4998C40.2151 52.4998 39.3751 51.6598 39.3751 50.6248C39.3751 49.5898 40.2151 48.7498 41.2501 48.7498ZM39.3751 35.6248V44.9998C39.3751 46.0348 40.2151 46.8748 41.2501 46.8748C42.2851 46.8748 43.1251 46.0348 43.1251 44.9998V35.6248C43.1251 34.5898 42.2851 33.7498 41.2501 33.7498C40.2151 33.7498 39.3751 34.5898 39.3751 35.6248Z" fill="#FF00AE"/>
    <path fill-rule="evenodd" clip-rule="evenodd" d="M21.6169 56.8519C21.2006 56.0456 20.9081 55.1925 20.7413 54.3206C19.0088 50.9138 17.6325 46.4156 16.8056 41.25H4.21875C7.4625 48.6656 13.8112 54.4163 21.6169 56.8519ZM25.1175 41.25L22.0294 47.4244C21.4537 45.5344 20.97 43.4625 20.595 41.25H25.1175ZM2.88752 22.5C2.22752 24.8888 1.875 27.4031 1.875 30C1.875 32.5969 2.22752 35.1113 2.88752 37.5H16.3144C16.0687 35.0981 15.9375 32.5856 15.9375 30C15.9375 27.4144 16.0687 24.9019 16.3144 22.5H2.88752ZM46.9444 22.5C48.0562 23.3513 48.9843 24.4556 49.635 25.755L55.5075 37.5H57.1125C57.7725 35.1113 58.125 32.5969 58.125 30C58.125 27.4031 57.7725 24.8888 57.1125 22.5H46.9444ZM35.5556 22.5C34.4438 23.3513 33.5157 24.4556 32.865 25.755L26.9925 37.5H20.0794C19.8225 35.1075 19.6875 32.5931 19.6875 30C19.6875 27.4069 19.8225 24.8925 20.0794 22.5H35.5556ZM37.6031 2.9175C38.0306 3.5175 38.4431 4.17375 38.835 4.8825C40.7681 8.37 42.3 13.17 43.1944 18.75H55.7812C52.4306 11.0906 45.765 5.20688 37.6031 2.9175ZM22.3969 2.9175C14.235 5.20688 7.56937 11.0906 4.21875 18.75H16.8056C17.7 13.17 19.2319 8.37 21.165 4.8825C21.5569 4.17375 21.9694 3.5175 22.3969 2.9175ZM39.405 18.75H20.595C21.4144 13.9219 22.7475 9.76125 24.4444 6.69938C26.0512 3.80063 27.8569 1.875 30 1.875C32.1431 1.875 33.9488 3.80063 35.5556 6.69938C37.2525 9.76125 38.5856 13.9219 39.405 18.75Z" fill="#FF00AE"/>
</svg>
