<svg width="24" height="24" viewBox="0 0 24 24" fill="none" xmlns="http://www.w3.org/2000/svg">
    <path d="M5.3657 3.14558L9.07713 6.857H2.64855C2.77973 6.069 3.09389 5.32275 3.56578 4.67818C4.03767 4.03361 4.65415 3.50869 5.3657 3.14558ZM10.3543 2.57129H7.71427C7.55141 2.57129 7.38855 2.57986 7.2257 2.58843L11.4943 6.857H14.64L10.3543 2.57129ZM16.2857 2.57129H12.7886L17.0743 6.857H21.3514C21.1506 5.65878 20.5314 4.57059 19.6039 3.78588C18.6764 3.00117 17.5006 2.57081 16.2857 2.57129ZM10.6988 16.8221L14.9845 14.465C15.119 14.3912 15.2313 14.2825 15.3095 14.1504C15.3877 14.0183 15.4289 13.8676 15.4289 13.7141C15.4289 13.5606 15.3877 13.41 15.3095 13.2779C15.2313 13.1458 15.119 13.0371 14.9845 12.9633L10.6988 10.6061C10.5683 10.5344 10.4213 10.4978 10.2724 10.5002C10.1235 10.5025 9.97773 10.5435 9.84952 10.6193C9.72131 10.6951 9.61506 10.803 9.54125 10.9324C9.46743 11.0617 9.42859 11.2081 9.42855 11.357V16.0713C9.42859 16.2202 9.46743 16.3666 9.54125 16.4959C9.61506 16.6253 9.72131 16.7332 9.84952 16.809C9.97773 16.8847 10.1235 16.9258 10.2724 16.9281C10.4213 16.9304 10.5683 16.8939 10.6988 16.8221ZM21.4286 8.57129V16.2856C21.4275 17.6492 20.8853 18.9567 19.921 19.9209C18.9568 20.8852 17.6493 21.4273 16.2857 21.4284H7.71427C6.35063 21.4273 5.04316 20.8852 4.07892 19.9209C3.11469 18.9567 2.5725 17.6492 2.57141 16.2856V8.57129H21.4286Z" fill="white"/>
</svg>
